<?xml version="1.0" encoding="UTF-8"?><svg id="Noir" xmlns="http://www.w3.org/2000/svg" viewBox="0 0 571.68 184.93"><defs><style>.cls-1{fill:#151619;}.cls-2{isolation:isolate;}</style></defs><g id="Groupe_2314-2"><g id="Logo-blanc-6"><path id="Tracé_1104-4" class="cls-1" d="m66.53,138.54c4.83-2.05,8.79-5.72,11.19-10.38,2.2-4.45,3.32-11.09,3.32-19.88,0-7.92-1.43-13.9-4.4-18.04-2.91-4.14-9.06-8.55-18.45-13.24-7-3.53-11.65-6.18-13.9-8.03-2.25-1.84-3.63-3.58-4.04-5.11-.56-2.38-.8-4.82-.72-7.26-.11-1.94.37-3.86,1.38-5.52.98-1.28,2.54-1.97,4.14-1.84,2.25,0,3.68.66,4.24,1.99s.87,4.45.87,9.4v5.83h28.47v-6.24c.12-4-.15-8.01-.82-11.96-.87-3.13-2.5-5.99-4.75-8.33-3.13-3.28-7.01-5.75-11.3-7.21-5.76-1.93-11.81-2.85-17.89-2.71-6.35-.13-12.66,1.02-18.55,3.37-5.42,2.2-9.2,5.37-11.4,9.46-2.25,4.14-3.37,10.48-3.37,19.12-.12,5.43.95,10.82,3.12,15.79,2.1,4.4,7.87,9.34,17.33,14.82,11.3,6.39,17.53,10.27,18.76,11.55,1.17,1.28,1.74,4.55,1.74,9.71,0,3.73-.46,6.18-1.33,7.36-.92,1.18-2.56,1.79-4.86,1.79s-3.63-.87-4.34-2.66c-.72-1.74-1.07-5.57-1.07-11.4v-6.85H11.37v5.27c0,9.05,1.07,15.79,3.27,20.29,2.15,4.45,6.18,8.03,12.01,10.63,5.78,2.66,12.78,3.94,20.96,3.94,7.36-.04,13.7-1.27,18.91-3.67Z"/><rect id="Rectangle_1829-4" class="cls-1" x="89.73" y="8.04" width="33.07" height="17.23"/><rect id="Rectangle_1830-4" class="cls-1" x="89.73" y="31.91" width="33.07" height="108.26"/><path id="Tracé_1105-4" class="cls-1" d="m175.4,51.64c.46,1.59.66,6.18.66,13.6v74.93h32.3v-75.8c0-9.46-.51-16.2-1.48-20.29-.98-4.04-3.36-7.6-6.7-10.07-3.48-2.66-7.97-3.99-13.49-3.99-4.05-.1-8.06.94-11.55,3.01-3.57,2.22-6.51,5.32-8.54,9l.51-10.12h-32.82v108.26h32.25v-73.09c0-8.13.31-13.14.82-15.03.56-1.89,1.94-2.81,4.14-2.81,2.15-.05,3.43.82,3.89,2.4Z"/><path id="Tracé_1106-4" class="cls-1" d="m224.93,13.77c-1.79,1.73-3.03,3.96-3.58,6.39-.46,2.45-.72,7.16-.72,14.31h-6.49v17.28h6.49v88.48h32.25V51.69h7.87v-17.22h-13.85v-3.48c0-2.91.61-4.7,1.84-5.32,1.23-.62,5.21-.97,12.01-.97V8.04h-11.86c-7.21,0-12.52.46-16,1.43-2.96.78-5.69,2.25-7.97,4.29Z"/><rect id="Rectangle_1831-4" class="cls-1" x="266.69" y="31.91" width="33.07" height="108.26"/><rect id="Rectangle_1832-4" class="cls-1" x="266.69" y="8.04" width="33.07" height="17.23"/><path id="Tracé_1107-4" class="cls-1" d="m343.61,42.04l.56-10.12h-32.82v108.26h32.25v-73.09c0-8.13.26-13.14.87-15.03.51-1.89,1.94-2.81,4.14-2.81s3.37.82,3.83,2.45c.46,1.59.67,6.18.67,13.6v74.93h32.3v-75.86c0-9.46-.51-16.2-1.53-20.29-.98-4.04-3.35-7.6-6.7-10.07-3.48-2.66-7.97-3.99-13.44-3.99-4.07-.1-8.09.95-11.6,3.02-3.6,2.18-6.55,5.29-8.53,9Z"/><rect id="Rectangle_1833-4" class="cls-1" x="397.64" y="31.76" width="33.17" height="108.36"/><rect id="Rectangle_1834-4" class="cls-1" x="443.03" y="31.76" width="33.22" height="108.36"/><rect id="Rectangle_1835-4" class="cls-1" x="488.52" y="31.76" width="33.17" height="108.36"/><g id="TM-6" class="cls-2"><g class="cls-2"><path class="cls-1" d="m529.55,34.72v-2.9h12.87v2.9h-4.71v12.8h-3.45v-12.8h-4.71Z"/><path class="cls-1" d="m549.08,31.81l3.67,10.8h.04l3.48-10.8h4.86v15.71h-3.23v-11.13h-.04l-3.85,11.13h-2.66l-3.85-11.02h-.04v11.02h-3.23v-15.71h4.86Z"/></g></g></g><g><path class="cls-1" d="m161.36,156.15c2.05,0,3.59.53,4.65,1.58,1.05,1.05,1.58,2.52,1.58,4.42s-.53,3.37-1.58,4.43c-1.05,1.06-2.6,1.58-4.65,1.56h-6.19v8.3h-2.7v-20.29h8.89Zm-.91,9.72c1.53.02,2.66-.29,3.37-.94s1.07-1.57,1.07-2.78-.35-2.14-1.07-2.77-1.83-.95-3.37-.95h-5.28v7.44h5.28Z"/><path class="cls-1" d="m180.42,156.15c1.93,0,3.44.47,4.53,1.42,1.09.95,1.63,2.25,1.63,3.89,0,1.23-.28,2.31-.84,3.24-.56.93-1.45,1.56-2.69,1.9v.06c.59.11,1.07.3,1.43.57.37.27.66.58.88.95s.38.78.48,1.24c.1.45.19.93.24,1.42.04.49.07,1,.09,1.51.02.51.07,1.01.14,1.51.08.49.19.96.33,1.41s.35.84.64,1.18h-3.01c-.19-.21-.32-.49-.38-.85-.07-.36-.11-.76-.13-1.21s-.04-.92-.06-1.44c-.02-.51-.08-1.01-.17-1.51-.08-.49-.17-.96-.28-1.41-.11-.44-.29-.83-.54-1.17-.25-.33-.57-.6-.97-.79-.4-.2-.93-.3-1.59-.3h-6.59v8.67h-2.7v-20.29h9.55Zm.57,9.21c.57-.09,1.07-.28,1.49-.55s.77-.64,1.02-1.11c.26-.46.38-1.07.38-1.8,0-1.02-.28-1.86-.85-2.5-.57-.64-1.49-.97-2.76-.97h-6.71v7.08h5.63c.62,0,1.22-.05,1.79-.14Z"/><path class="cls-1" d="m189.81,162.3c.41-1.28,1.02-2.41,1.83-3.4.81-.99,1.83-1.77,3.04-2.36,1.21-.59,2.62-.88,4.23-.88s3.02.29,4.23.88c1.21.59,2.23,1.37,3.04,2.36.81.98,1.43,2.12,1.83,3.4.41,1.28.61,2.61.61,3.99s-.2,2.71-.61,3.99-1.02,2.41-1.83,3.4c-.81.99-1.83,1.77-3.04,2.34-1.21.58-2.62.87-4.23.87s-3.02-.29-4.23-.87c-1.21-.58-2.23-1.36-3.04-2.34-.81-.98-1.43-2.12-1.83-3.4s-.61-2.61-.61-3.99.2-2.71.61-3.99Zm2.49,7.02c.27.99.68,1.89,1.25,2.68.57.8,1.3,1.44,2.19,1.92.89.48,1.95.72,3.18.72s2.29-.24,3.18-.72c.89-.48,1.62-1.12,2.19-1.92.57-.79.98-1.69,1.25-2.68.27-.99.4-2,.4-3.03s-.13-2.03-.4-3.03c-.27-1-.68-1.89-1.25-2.69-.57-.79-1.3-1.43-2.19-1.92-.89-.48-1.95-.72-3.18-.72s-2.29.24-3.18.72c-.89.48-1.62,1.12-2.19,1.92-.57.8-.98,1.69-1.25,2.69-.27.99-.4,2-.4,3.03s.13,2.03.4,3.03Z"/><path class="cls-1" d="m218.89,156.15c3.13,0,5.53.79,7.22,2.39,1.69,1.59,2.53,4.02,2.53,7.27,0,1.7-.19,3.21-.57,4.53-.38,1.32-.97,2.42-1.76,3.32-.8.9-1.81,1.59-3.04,2.06-1.23.47-2.69.71-4.38.71h-6.96v-20.29h6.96Zm.23,18.01c.3,0,.68-.02,1.14-.07s.94-.16,1.45-.34c.51-.18,1.02-.44,1.52-.78.5-.34.95-.8,1.35-1.39.4-.59.72-1.32.98-2.2.26-.88.38-1.95.38-3.2s-.12-2.3-.36-3.25c-.24-.96-.62-1.77-1.16-2.44-.54-.67-1.24-1.18-2.09-1.53-.85-.35-1.9-.53-3.15-.53h-4.55v15.74h4.49Z"/><path class="cls-1" d="m246.06,174.94c-1.38,1.3-3.35,1.95-5.91,1.95s-4.66-.62-6.12-1.86c-1.47-1.24-2.2-3.21-2.2-5.92v-12.96h2.7v12.96c0,1.82.48,3.2,1.45,4.13.97.94,2.36,1.41,4.18,1.41,1.72,0,3.04-.47,3.94-1.41.9-.94,1.35-2.32,1.35-4.13v-12.96h2.7v12.96c0,2.59-.69,4.54-2.07,5.84Z"/><path class="cls-1" d="m264.71,159.02c-1.03-.72-2.26-1.08-3.68-1.08-1.21,0-2.25.23-3.11.68-.86.45-1.57,1.07-2.13,1.83-.56.77-.97,1.64-1.24,2.63-.27.98-.4,2.01-.4,3.07,0,1.16.13,2.25.4,3.28.27,1.03.68,1.93,1.24,2.7.56.77,1.27,1.38,2.15,1.83.87.45,1.91.68,3.13.68.89,0,1.68-.15,2.37-.44.69-.29,1.29-.7,1.79-1.22.5-.52.9-1.14,1.18-1.86.28-.72.45-1.5.51-2.33h2.7c-.27,2.56-1.15,4.55-2.64,5.97-1.5,1.42-3.54,2.13-6.14,2.13-1.57,0-2.95-.27-4.12-.81-1.17-.54-2.15-1.28-2.93-2.23-.78-.95-1.36-2.06-1.75-3.35-.39-1.29-.58-2.67-.58-4.15s.21-2.86.62-4.16c.42-1.3,1.03-2.43,1.83-3.4.81-.97,1.81-1.73,3.01-2.29,1.2-.56,2.58-.84,4.13-.84,1.06,0,2.06.14,3.01.43.95.28,1.79.7,2.53,1.25.74.55,1.35,1.24,1.85,2.06.49.82.81,1.78.97,2.86h-2.7c-.3-1.44-.97-2.52-2-3.24Z"/><path class="cls-1" d="m270.8,158.42v-2.27h16.22v2.27h-6.76v18.01h-2.7v-18.01h-6.76Z"/><path class="cls-1" d="m305.66,156.15c1.31,0,2.52.21,3.65.62s2.1,1.04,2.93,1.88c.82.83,1.47,1.88,1.93,3.12.46,1.25.7,2.72.7,4.4,0,1.48-.19,2.84-.57,4.09-.38,1.25-.95,2.33-1.72,3.24s-1.72,1.62-2.87,2.15c-1.15.52-2.5.78-4.05.78h-8.75v-20.29h8.75Zm-.31,16.54c.64,0,1.27-.1,1.88-.31.61-.21,1.15-.55,1.62-1.04.47-.48.85-1.11,1.14-1.89s.43-1.72.43-2.84c0-1.02-.1-1.95-.3-2.77-.2-.82-.53-1.53-.98-2.12-.45-.59-1.06-1.04-1.8-1.35-.75-.31-1.67-.47-2.77-.47h-3.18v12.79h3.98Z"/><path class="cls-1" d="m328.08,156.15l7.59,20.29h-4.63l-1.53-4.52h-7.59l-1.59,4.52h-4.49l7.67-20.29h4.57Zm.26,12.44l-2.56-7.44h-.06l-2.64,7.44h5.26Z"/><path class="cls-1" d="m333.22,159.9v-3.75h16.62v3.75h-6.08v16.54h-4.46v-16.54h-6.08Z"/><path class="cls-1" d="m359.68,156.15l7.59,20.29h-4.63l-1.53-4.52h-7.59l-1.59,4.52h-4.49l7.67-20.29h4.57Zm.26,12.44l-2.56-7.44h-.06l-2.64,7.44h5.26Z"/><path class="cls-1" d="m386.07,156.15c2.05,0,3.59.53,4.65,1.58,1.05,1.05,1.58,2.52,1.58,4.42s-.53,3.37-1.58,4.43c-1.05,1.06-2.6,1.58-4.65,1.56h-6.19v8.3h-2.7v-20.29h8.89Zm-.91,9.72c1.53.02,2.66-.29,3.37-.94s1.07-1.57,1.07-2.78-.35-2.14-1.07-2.77-1.83-.95-3.37-.95h-5.28v7.44h5.28Z"/><path class="cls-1" d="m398.29,156.15v18.01h10.74v2.27h-13.44v-20.29h2.7Z"/><path class="cls-1" d="m419.88,156.15l7.93,20.29h-2.98l-2.22-6.11h-8.58l-2.27,6.11h-2.76l7.9-20.29h2.98Zm1.88,11.9l-3.38-9.46h-.06l-3.44,9.46h6.88Z"/><path class="cls-1" d="m425.03,158.42v-2.27h16.22v2.27h-6.76v18.01h-2.7v-18.01h-6.76Z"/><path class="cls-1" d="m456.82,156.15v2.27h-10.63v6.45h9.32v2.27h-9.32v9.29h-2.7v-20.29h13.33Z"/><path class="cls-1" d="m459.28,162.3c.41-1.28,1.02-2.41,1.83-3.4.81-.99,1.83-1.77,3.04-2.36,1.21-.59,2.62-.88,4.23-.88s3.02.29,4.23.88c1.21.59,2.23,1.37,3.04,2.36.81.98,1.43,2.12,1.83,3.4.41,1.28.61,2.61.61,3.99s-.2,2.71-.61,3.99-1.02,2.41-1.83,3.4c-.81.99-1.83,1.77-3.04,2.34-1.21.58-2.62.87-4.23.87s-3.02-.29-4.23-.87c-1.21-.58-2.23-1.36-3.04-2.34-.81-.98-1.43-2.12-1.83-3.4s-.61-2.61-.61-3.99.2-2.71.61-3.99Zm2.49,7.02c.27.99.68,1.89,1.25,2.68.57.8,1.3,1.44,2.19,1.92.89.48,1.95.72,3.18.72s2.29-.24,3.18-.72c.89-.48,1.62-1.12,2.19-1.92.57-.79.98-1.69,1.25-2.68.27-.99.4-2,.4-3.03s-.13-2.03-.4-3.03c-.27-1-.68-1.89-1.25-2.69-.57-.79-1.3-1.43-2.19-1.92-.89-.48-1.95-.72-3.18-.72s-2.29.24-3.18.72c-.89.48-1.62,1.12-2.19,1.92-.57.8-.98,1.69-1.25,2.69-.27.99-.4,2-.4,3.03s.13,2.03.4,3.03Z"/><path class="cls-1" d="m490.94,156.15c1.93,0,3.44.47,4.53,1.42,1.09.95,1.63,2.25,1.63,3.89,0,1.23-.28,2.31-.84,3.24-.56.93-1.45,1.56-2.69,1.9v.06c.59.11,1.07.3,1.43.57.37.27.66.58.88.95s.38.78.48,1.24c.1.45.19.93.24,1.42.04.49.07,1,.09,1.51.02.51.07,1.01.14,1.51.08.49.19.96.33,1.41s.35.84.64,1.18h-3.01c-.19-.21-.32-.49-.38-.85-.07-.36-.11-.76-.13-1.21s-.04-.92-.06-1.44c-.02-.51-.08-1.01-.17-1.51-.08-.49-.17-.96-.28-1.41-.11-.44-.29-.83-.54-1.17-.25-.33-.57-.6-.97-.79-.4-.2-.93-.3-1.59-.3h-6.59v8.67h-2.7v-20.29h9.55Zm.57,9.21c.57-.09,1.07-.28,1.49-.55s.77-.64,1.02-1.11c.26-.46.38-1.07.38-1.8,0-1.02-.28-1.86-.85-2.5-.57-.64-1.49-.97-2.76-.97h-6.71v7.08h5.63c.62,0,1.22-.05,1.79-.14Z"/><path class="cls-1" d="m504.61,156.15l6.39,17.05,6.42-17.05h3.69v20.29h-2.56v-16.88h-.06l-6.34,16.88h-2.3l-6.34-16.88h-.06v16.88h-2.56v-20.29h3.69Z"/></g></g></svg>