<?xml version="1.0" encoding="UTF-8"?>
<svg xmlns="http://www.w3.org/2000/svg" xmlns:xlink="http://www.w3.org/1999/xlink" width="300px" height="59px" viewBox="0 0 297 59" version="1.1">
<g id="surface1">
<path style=" stroke:none;fill-rule:nonzero;fill:rgb(0%,16.862745%,75.686275%);fill-opacity:1;" d="M 109.976562 0 L 109.976562 20.355469 C 107.152344 15.859375 102.089844 13.285156 96.804688 13.660156 C 84.835938 13.660156 79.894531 22.714844 79.894531 33.1875 C 79.894531 43.660156 84.835938 52.894531 96.804688 52.894531 C 102.078125 53.285156 107.140625 50.734375 109.976562 46.257812 L 109.976562 51.714844 L 120.859375 51.714844 L 120.859375 0 Z M 100.1875 44.25 C 93.277344 44.25 90.777344 40.769531 90.777344 33.1875 C 90.777344 25.605469 93.277344 22.125 100.1875 22.125 C 107.097656 22.125 109.976562 25.664062 109.976562 33.1875 C 109.976562 40.710938 107.039062 44.25 100.1875 44.25 Z M 140 52.65625 C 146.03125 53.214844 151.660156 49.558594 153.617188 43.808594 C 153.601562 46.453125 153.796875 49.097656 154.203125 51.714844 L 163.671875 51.714844 C 163.292969 48.53125 163.097656 45.332031 163.085938 42.125 L 163.085938 26.195312 C 163.085938 18.378906 157.644531 13.570312 146.472656 13.570312 C 135.296875 13.570312 128.828125 18.96875 128.535156 26.84375 L 139.207031 26.84375 C 139.207031 23.097656 141.707031 21.09375 146.707031 21.09375 C 151.707031 21.09375 153.085938 22.804688 153.085938 25.371094 C 153.085938 27.9375 151.910156 28.46875 148.53125 29.058594 L 139.855469 30.53125 C 130.386719 32.15625 127.796875 35.988281 127.796875 41.890625 C 127.796875 48.527344 132.589844 52.65625 140 52.65625 Z M 143.675781 45.222656 C 140.738281 45.222656 138.53125 43.75 138.53125 40.796875 C 138.53125 37.847656 140.089844 36.578125 143.972656 35.636719 L 146.910156 34.898438 C 149.058594 34.53125 151.113281 33.726562 152.941406 32.539062 L 152.941406 34.160156 C 153.085938 41.003906 149.410156 45.222656 143.675781 45.222656 Z M 194.875 13.660156 C 189.144531 13.40625 183.863281 16.761719 181.640625 22.066406 L 181.640625 14.75 L 170.761719 14.75 L 170.761719 51.625 L 181.640625 51.625 L 181.640625 34.957031 C 181.640625 26.109375 184.875 22.507812 190.699219 22.507812 C 195.167969 22.507812 197.667969 24.867188 197.667969 30.769531 L 197.667969 51.714844 L 208.546875 51.714844 L 208.546875 29.058594 C 208.546875 19.410156 204.519531 13.660156 194.875 13.660156 Z M 243.6875 51.714844 L 256.625 51.714844 L 239.953125 30.53125 L 255.832031 15.132812 L 255.832031 14.75 L 242.746094 14.75 L 230.984375 27.050781 C 229.75 28.46875 228.425781 30.148438 227.160156 31.917969 L 227.160156 0 L 216.28125 0 L 216.28125 51.625 L 227.160156 51.625 L 227.160156 42.773438 L 233.042969 37.171875 Z M 270.945312 52.65625 C 276.976562 53.214844 282.605469 49.558594 284.5625 43.808594 C 284.542969 46.453125 284.742188 49.097656 285.148438 51.714844 L 294.617188 51.714844 C 294.238281 48.53125 294.042969 45.332031 294.03125 42.125 L 294.03125 26.195312 C 294.03125 18.378906 288.589844 13.570312 277.414062 13.570312 C 266.242188 13.570312 259.773438 18.96875 259.476562 26.84375 L 270.152344 26.84375 C 270.152344 23.097656 272.652344 21.09375 277.652344 21.09375 C 282.648438 21.09375 284.03125 22.804688 284.03125 25.371094 C 284.03125 27.9375 282.855469 28.46875 279.355469 29.058594 L 270.535156 30.53125 C 261.332031 32.15625 258.773438 35.988281 258.773438 41.890625 C 258.773438 48.527344 263.535156 52.65625 270.945312 52.65625 Z M 274.621094 45.222656 C 271.679688 45.222656 269.476562 43.75 269.476562 40.796875 C 269.476562 37.847656 271.035156 36.578125 274.917969 35.636719 L 278.003906 34.898438 C 280.101562 34.511719 282.101562 33.710938 283.886719 32.539062 L 283.886719 34.160156 C 284.03125 41.003906 280.355469 45.222656 274.621094 45.222656 Z M 26.671875 0 L 0 0 L 0 59 L 26.671875 59 C 42.910156 59 56.078125 45.792969 56.078125 29.5 C 56.078125 13.207031 42.910156 0 26.671875 0 Z M 25.40625 44.25 L 18.261719 44.25 L 25.40625 29.5 L 32.550781 29.5 Z M 25.40625 29.5 L 18.261719 29.5 L 25.40625 14.75 L 32.550781 14.75 Z M 25.40625 29.5 "/>
</g>
</svg>
