<?xml version="1.0" encoding="UTF-8"?>
<svg xmlns="http://www.w3.org/2000/svg" xmlns:xlink="http://www.w3.org/1999/xlink" width="300px" height="85px" viewBox="0 0 301 85" version="1.1">
<g id="surface1">
<path style=" stroke:none;fill-rule:nonzero;fill:rgb(99.215686%,20.392157%,12.54902%);fill-opacity:1;" d="M 61.628906 13.367188 C 60.800781 13.367188 60.09375 13.429688 59.5 13.605469 C 58.910156 13.722656 58.4375 13.902344 58.023438 14.136719 C 57.609375 14.316406 57.257812 14.550781 57.019531 14.789062 C 56.722656 15.023438 56.488281 15.261719 56.3125 15.4375 L 56.546875 15.734375 C 56.84375 15.558594 57.195312 15.320312 57.550781 15.144531 C 57.90625 14.964844 58.378906 14.847656 58.910156 14.847656 C 59.855469 14.847656 60.683594 15.203125 61.332031 15.972656 C 62.042969 16.742188 62.335938 17.921875 62.335938 19.578125 C 62.335938 21.117188 61.804688 22.417969 60.742188 23.367188 C 59.679688 24.3125 58.261719 24.785156 56.546875 24.785156 C 54.894531 24.785156 53.535156 24.195312 52.527344 23.011719 C 51.523438 21.828125 51.050781 20.171875 51.050781 17.984375 C 51.050781 16.800781 51.347656 15.617188 51.878906 14.433594 C 52.410156 13.25 53.296875 12.1875 54.421875 11.238281 C 55.542969 10.292969 57.019531 9.523438 58.792969 8.933594 C 60.566406 8.339844 62.691406 8.042969 65.175781 8.042969 C 68.128906 8.042969 70.609375 8.398438 72.5 9.050781 C 74.390625 9.761719 75.867188 10.589844 76.933594 11.652344 C 77.996094 12.71875 78.703125 13.960938 79.117188 15.320312 C 79.53125 16.679688 79.710938 18.042969 79.710938 19.460938 L 79.710938 30.878906 C 79.710938 32.652344 79.769531 33.835938 79.828125 34.488281 C 79.945312 35.136719 80.300781 35.433594 80.890625 35.433594 C 81.363281 35.433594 81.71875 35.136719 81.957031 34.546875 C 82.132812 33.953125 82.25 33.007812 82.25 31.585938 L 82.25 27.921875 L 84.96875 27.921875 L 84.96875 31.648438 C 84.96875 33.421875 84.851562 34.960938 84.613281 36.320312 C 84.378906 37.679688 83.90625 38.863281 83.253906 39.808594 C 82.605469 40.757812 81.660156 41.527344 80.535156 42 C 79.355469 42.472656 77.9375 42.769531 76.105469 42.769531 C 74.511719 42.769531 73.152344 42.53125 72.085938 42.117188 C 71.023438 41.703125 70.195312 41.171875 69.546875 40.578125 C 68.898438 39.929688 68.484375 39.277344 68.1875 38.628906 C 67.949219 37.976562 67.773438 37.386719 67.773438 36.851562 L 67.417969 36.851562 C 67.300781 37.679688 67.066406 38.390625 66.59375 39.160156 C 66.121094 39.871094 65.527344 40.519531 64.703125 41.050781 C 63.875 41.585938 62.929688 42.058594 61.804688 42.414062 C 60.683594 42.769531 59.382812 42.945312 57.964844 42.945312 C 56.605469 42.945312 55.304688 42.769531 54.183594 42.472656 C 53.0625 42.175781 52.117188 41.644531 51.289062 40.933594 C 50.519531 40.222656 49.871094 39.335938 49.457031 38.273438 C 49.042969 37.148438 48.808594 35.847656 48.808594 34.367188 C 48.808594 32.476562 49.21875 30.996094 50.105469 29.929688 C 50.992188 28.867188 52.054688 27.980469 53.355469 27.386719 C 54.65625 26.738281 56.074219 26.265625 57.667969 25.851562 C 59.207031 25.4375 60.625 24.960938 61.984375 24.429688 C 63.28125 23.839844 64.40625 23.128906 65.234375 22.242188 C 66.121094 21.355469 66.53125 20.054688 66.53125 18.457031 C 66.53125 16.976562 66.179688 15.792969 65.410156 14.90625 C 64.582031 13.84375 63.34375 13.367188 61.628906 13.367188 Z M 66.59375 0 L 69.074219 5.324219 L 63.164062 5.324219 L 58.734375 0 Z M 66.414062 26.027344 C 66.0625 26.679688 65.648438 27.152344 65.113281 27.507812 C 64.582031 27.859375 64.050781 28.273438 63.578125 28.628906 C 63.105469 28.984375 62.691406 29.398438 62.277344 29.929688 C 61.925781 30.40625 61.746094 31.113281 61.746094 31.941406 C 61.746094 32.59375 61.863281 33.183594 62.160156 33.65625 C 62.457031 34.191406 62.988281 34.425781 63.816406 34.425781 C 64.582031 34.425781 65.175781 34.070312 65.648438 33.363281 C 66.121094 32.652344 66.355469 31.648438 66.355469 30.34375 L 66.355469 26.027344 Z M 66.414062 26.027344 "/>
<path style=" stroke:none;fill-rule:nonzero;fill:rgb(99.215686%,20.392157%,12.54902%);fill-opacity:1;" d="M 113.980469 8.695312 L 113.980469 31.054688 C 113.980469 32.0625 114.214844 32.710938 114.75 33.007812 C 115.222656 33.304688 115.871094 33.480469 116.640625 33.480469 L 117.230469 33.480469 L 117.230469 41.820312 L 98.320312 41.820312 L 98.320312 33.480469 L 99.207031 33.480469 C 99.976562 33.480469 100.566406 33.242188 100.980469 32.710938 C 101.335938 32.238281 101.570312 31.648438 101.570312 31.054688 L 101.570312 19.578125 C 101.570312 18.691406 101.277344 18.042969 100.746094 17.628906 C 100.214844 17.214844 99.5625 17.035156 98.855469 17.035156 L 98.382812 17.035156 L 98.382812 8.695312 Z M 113.980469 8.695312 "/>
<path style=" stroke:none;fill-rule:nonzero;fill:rgb(99.215686%,20.392157%,12.54902%);fill-opacity:1;" d="M 131.648438 13.960938 C 130.878906 13.960938 130.230469 14.019531 129.699219 14.195312 C 129.167969 14.316406 128.695312 14.492188 128.28125 14.671875 C 127.867188 14.847656 127.570312 15.085938 127.335938 15.320312 C 127.097656 15.558594 126.863281 15.792969 126.683594 15.972656 L 126.921875 16.265625 C 127.214844 16.089844 127.511719 15.914062 127.867188 15.675781 C 128.222656 15.5 128.636719 15.378906 129.167969 15.378906 C 130.054688 15.378906 130.820312 15.734375 131.472656 16.503906 C 132.121094 17.214844 132.417969 18.398438 132.417969 19.992188 C 132.417969 21.53125 131.945312 22.773438 130.9375 23.660156 C 129.933594 24.609375 128.636719 25.023438 126.980469 25.023438 C 125.386719 25.023438 124.144531 24.429688 123.199219 23.304688 C 122.253906 22.125 121.78125 20.527344 121.78125 18.398438 C 121.78125 17.214844 122.015625 16.089844 122.550781 14.90625 C 123.082031 13.722656 123.847656 12.71875 124.914062 11.773438 C 125.976562 10.824219 127.335938 10.113281 128.988281 9.523438 C 130.644531 8.933594 132.652344 8.636719 134.957031 8.636719 C 137.734375 8.636719 140.039062 8.992188 141.8125 9.640625 C 143.585938 10.292969 144.941406 11.179688 145.949219 12.246094 C 146.953125 13.308594 147.601562 14.492188 147.957031 15.851562 C 148.3125 17.214844 148.488281 18.515625 148.488281 19.875 L 148.488281 31.054688 C 148.488281 32.769531 148.546875 33.953125 148.605469 34.605469 C 148.726562 35.253906 149.019531 35.550781 149.609375 35.550781 C 150.082031 35.550781 150.378906 35.253906 150.617188 34.722656 C 150.792969 34.132812 150.910156 33.183594 150.910156 31.824219 L 150.910156 28.214844 L 153.453125 28.214844 L 153.453125 31.882812 C 153.453125 33.597656 153.332031 35.136719 153.097656 36.4375 C 152.859375 37.738281 152.445312 38.921875 151.796875 39.871094 C 151.148438 40.816406 150.320312 41.527344 149.257812 42 C 148.191406 42.472656 146.773438 42.707031 145.121094 42.707031 C 143.585938 42.707031 142.34375 42.53125 141.339844 42.117188 C 140.335938 41.703125 139.566406 41.171875 138.976562 40.578125 C 138.382812 39.988281 137.972656 39.335938 137.734375 38.6875 C 137.496094 38.035156 137.378906 37.445312 137.378906 36.910156 L 137.023438 36.910156 C 136.90625 37.679688 136.671875 38.449219 136.257812 39.160156 C 135.84375 39.871094 135.253906 40.519531 134.484375 41.050781 C 133.714844 41.585938 132.832031 42.058594 131.765625 42.355469 C 130.703125 42.707031 129.519531 42.828125 128.164062 42.828125 C 126.863281 42.828125 125.679688 42.648438 124.617188 42.355469 C 123.554688 42.058594 122.667969 41.527344 121.898438 40.875 C 121.128906 40.222656 120.597656 39.335938 120.183594 38.214844 C 119.769531 37.148438 119.59375 35.847656 119.59375 34.367188 C 119.59375 32.535156 120.007812 31.113281 120.835938 30.050781 C 121.664062 28.984375 122.667969 28.15625 123.90625 27.507812 C 125.148438 26.914062 126.449219 26.382812 127.925781 25.96875 C 129.34375 25.554688 130.703125 25.082031 131.945312 24.546875 C 133.183594 24.015625 134.1875 23.304688 135.015625 22.417969 C 135.84375 21.53125 136.257812 20.289062 136.257812 18.691406 C 136.257812 17.273438 135.902344 16.089844 135.195312 15.261719 C 134.367188 14.375 133.242188 13.960938 131.648438 13.960938 Z M 136.140625 26.382812 C 135.785156 26.972656 135.371094 27.507812 134.898438 27.859375 C 134.425781 28.214844 133.953125 28.570312 133.480469 28.925781 C 133.007812 29.28125 132.652344 29.695312 132.296875 30.167969 C 131.945312 30.640625 131.765625 31.292969 131.765625 32.121094 C 131.765625 32.769531 131.882812 33.304688 132.179688 33.835938 C 132.476562 34.367188 132.949219 34.605469 133.777344 34.605469 C 134.484375 34.605469 135.074219 34.25 135.488281 33.539062 C 135.902344 32.828125 136.140625 31.882812 136.140625 30.582031 Z M 136.140625 26.382812 "/>
<path style=" stroke:none;fill-rule:nonzero;fill:rgb(99.215686%,20.392157%,12.54902%);fill-opacity:1;" d="M 90.9375 28.75 C 93.121094 28.75 94.894531 26.972656 94.894531 24.785156 C 94.894531 22.597656 93.121094 20.820312 90.9375 20.820312 C 88.75 20.820312 86.976562 22.597656 86.976562 24.785156 C 86.976562 26.972656 88.75 28.75 90.9375 28.75 Z M 90.9375 28.75 "/>
<path style=" stroke:none;fill-rule:nonzero;fill:rgb(99.215686%,20.392157%,12.54902%);fill-opacity:1;" d="M 41.714844 0 L 0 0 L 0 41.761719 L 41.714844 41.761719 Z M 41.714844 0 "/>
<path style=" stroke:none;fill-rule:nonzero;fill:rgb(100%,100%,100%);fill-opacity:1;" d="M 41.773438 20.941406 C 41.773438 20.941406 33.976562 35.492188 20.917969 35.492188 C 8.449219 35.492188 0.0585938 20.941406 0.0585938 20.941406 C 0.0585938 20.941406 8.390625 6.386719 20.917969 6.386719 C 33.917969 6.328125 41.773438 20.941406 41.773438 20.941406 Z M 41.773438 20.941406 "/>
<path style=" stroke:none;fill-rule:nonzero;fill:rgb(96.862745%,49.019608%,73.72549%);fill-opacity:1;" d="M 20.917969 30.757812 C 26.335938 30.757812 30.726562 26.363281 30.726562 20.941406 C 30.726562 15.515625 26.335938 11.121094 20.917969 11.121094 C 15.5 11.121094 11.109375 15.515625 11.109375 20.941406 C 11.109375 26.363281 15.5 30.757812 20.917969 30.757812 Z M 20.917969 30.757812 "/>
<path style=" stroke:none;fill-rule:nonzero;fill:rgb(0.784314%,0.784314%,1.568627%);fill-opacity:1;" d="M 20.859375 26.203125 C 23.796875 26.203125 26.175781 23.820312 26.175781 20.882812 C 26.175781 17.941406 23.796875 15.558594 20.859375 15.558594 C 17.921875 15.558594 15.539062 17.941406 15.539062 20.882812 C 15.539062 23.820312 17.921875 26.203125 20.859375 26.203125 Z M 20.859375 26.203125 "/>
<path style=" stroke:none;fill-rule:nonzero;fill:rgb(99.215686%,20.392157%,12.54902%);fill-opacity:1;" d="M 16.542969 48.859375 L 16.542969 72.34375 C 16.542969 73.40625 16.78125 74.117188 17.3125 74.414062 C 17.84375 74.710938 18.496094 74.886719 19.320312 74.886719 L 19.972656 74.886719 L 19.972656 83.699219 L 0.0585938 83.699219 L 0.0585938 74.945312 L 1.003906 74.945312 C 1.832031 74.945312 2.480469 74.710938 2.835938 74.175781 C 3.25 73.644531 3.425781 73.054688 3.425781 72.460938 L 3.425781 60.335938 C 3.425781 59.449219 3.132812 58.738281 2.539062 58.324219 C 1.949219 57.910156 1.300781 57.671875 0.53125 57.671875 L 0.0585938 57.671875 L 0.0585938 48.917969 L 16.542969 48.917969 Z M 16.542969 48.859375 "/>
<path style=" stroke:none;fill-rule:nonzero;fill:rgb(99.215686%,20.392157%,12.54902%);fill-opacity:1;" d="M 43.960938 73.765625 C 43.488281 74.828125 43.015625 75.894531 42.484375 77.078125 C 41.953125 78.257812 41.300781 79.324219 40.476562 80.332031 C 39.648438 81.335938 38.585938 82.164062 37.34375 82.8125 C 36.042969 83.464844 34.390625 83.820312 32.320312 83.820312 C 30.84375 83.820312 29.601562 83.640625 28.480469 83.289062 C 27.417969 82.933594 26.472656 82.402344 25.761719 81.808594 C 25.054688 81.160156 24.523438 80.449219 24.167969 79.621094 C 23.8125 78.792969 23.636719 77.964844 23.636719 77.136719 C 23.636719 75.421875 24.167969 74.117188 25.171875 73.113281 C 26.234375 72.167969 27.535156 71.632812 29.070312 71.632812 C 29.957031 71.632812 30.726562 71.753906 31.375 72.046875 C 31.96875 72.285156 32.5 72.640625 32.914062 73.054688 C 33.324219 73.46875 33.5625 73.941406 33.738281 74.414062 C 33.917969 74.945312 33.976562 75.421875 33.976562 75.835938 C 33.976562 76.839844 33.738281 77.609375 33.207031 78.140625 C 32.734375 78.675781 32.085938 79.027344 31.433594 79.148438 C 31.492188 79.207031 31.554688 79.265625 31.730469 79.265625 C 31.90625 79.324219 32.261719 79.382812 32.734375 79.382812 C 33.207031 79.382812 33.679688 79.265625 34.035156 79.027344 C 34.449219 78.792969 34.742188 78.496094 35.097656 78.140625 C 35.453125 77.785156 35.6875 77.371094 35.925781 76.957031 C 36.160156 76.542969 36.339844 76.191406 36.457031 75.835938 L 36.515625 75.714844 L 27.59375 58.441406 C 27.476562 58.148438 27.300781 57.851562 27.121094 57.613281 C 26.945312 57.378906 26.765625 57.199219 26.53125 57.082031 C 26.292969 56.964844 26 56.847656 25.644531 56.726562 C 25.289062 56.667969 24.875 56.609375 24.34375 56.609375 L 24.34375 48.800781 L 41.183594 48.800781 L 41.183594 56.609375 C 40.296875 56.609375 39.707031 56.726562 39.472656 57.023438 C 39.175781 57.261719 39.175781 57.675781 39.410156 58.207031 L 41.953125 63.648438 L 44.433594 58.207031 C 44.671875 57.734375 44.613281 57.320312 44.375 57.023438 C 44.078125 56.726562 43.546875 56.609375 42.660156 56.609375 L 42.660156 48.800781 L 54.359375 48.800781 L 54.359375 56.609375 C 53.296875 56.609375 52.589844 56.726562 52.175781 57.023438 C 51.761719 57.320312 51.40625 57.792969 51.109375 58.382812 Z M 43.960938 73.765625 "/>
<path style=" stroke:none;fill-rule:nonzero;fill:rgb(99.215686%,20.392157%,12.54902%);fill-opacity:1;" d="M 55.128906 66.371094 C 55.128906 63.472656 55.542969 60.929688 56.3125 58.738281 C 57.136719 56.550781 58.261719 54.714844 59.738281 53.296875 C 61.214844 51.816406 62.988281 50.753906 65.113281 49.984375 C 67.183594 49.214844 69.546875 48.859375 72.148438 48.859375 C 74.746094 48.859375 77.050781 49.214844 79.179688 49.984375 C 81.246094 50.753906 83.078125 51.816406 84.554688 53.296875 C 86.03125 54.777344 87.15625 56.609375 87.980469 58.738281 C 88.808594 60.929688 89.222656 63.472656 89.222656 66.371094 C 89.222656 69.210938 88.808594 71.753906 87.980469 73.941406 C 87.15625 76.128906 86.03125 77.964844 84.554688 79.441406 C 83.078125 80.921875 81.304688 82.046875 79.179688 82.8125 C 77.109375 83.582031 74.746094 83.9375 72.148438 83.9375 C 69.546875 83.9375 67.242188 83.582031 65.113281 82.8125 C 62.988281 82.046875 61.214844 80.980469 59.738281 79.441406 C 58.261719 77.964844 57.078125 76.128906 56.3125 73.941406 C 55.542969 71.753906 55.128906 69.210938 55.128906 66.371094 Z M 68.601562 66.371094 C 68.601562 68.027344 68.660156 69.445312 68.777344 70.570312 C 68.898438 71.695312 69.074219 72.640625 69.371094 73.351562 C 69.664062 74.058594 70.019531 74.53125 70.433594 74.886719 C 70.90625 75.183594 71.496094 75.363281 72.207031 75.363281 C 72.914062 75.363281 73.507812 75.183594 73.917969 74.886719 C 74.390625 74.59375 74.746094 74.058594 74.984375 73.351562 C 75.277344 72.640625 75.457031 71.753906 75.574219 70.570312 C 75.691406 69.445312 75.75 68.027344 75.75 66.371094 C 75.75 63.058594 75.515625 60.75 74.984375 59.449219 C 74.511719 58.148438 73.566406 57.4375 72.148438 57.4375 C 71.4375 57.4375 70.847656 57.613281 70.375 57.910156 C 69.902344 58.207031 69.546875 58.738281 69.3125 59.390625 C 69.015625 60.101562 68.839844 60.988281 68.71875 62.167969 C 68.660156 63.351562 68.601562 64.714844 68.601562 66.371094 Z M 68.601562 66.371094 "/>
<path style=" stroke:none;fill-rule:nonzero;fill:rgb(99.215686%,20.392157%,12.54902%);fill-opacity:1;" d="M 114.867188 65.484375 C 114.867188 63.589844 114.808594 62.996094 114.628906 62.523438 C 114.453125 62.050781 114.277344 61.695312 114.039062 61.402344 C 113.804688 61.164062 113.566406 60.988281 113.269531 60.867188 C 112.976562 60.808594 112.679688 60.75 112.445312 60.75 C 111.378906 60.75 110.613281 61.164062 110.082031 61.933594 C 109.546875 62.703125 109.3125 63.824219 109.3125 65.246094 L 109.3125 70.6875 C 109.3125 71.753906 109.488281 72.523438 109.785156 72.996094 C 110.082031 73.46875 110.671875 73.703125 111.5 73.703125 L 112.796875 73.703125 L 112.796875 83.996094 L 92.472656 83.996094 L 92.472656 73.644531 L 93.890625 73.644531 C 94.539062 73.644531 95.074219 73.351562 95.425781 72.816406 C 95.78125 72.285156 95.957031 71.632812 95.957031 70.867188 L 95.957031 64.003906 C 95.957031 63.058594 95.722656 62.40625 95.308594 62.050781 C 94.835938 61.695312 94.363281 61.519531 93.773438 61.519531 L 92.472656 61.519531 L 92.472656 50.160156 L 106.949219 50.160156 L 106.417969 58.5625 L 106.832031 58.5625 C 107.183594 55.425781 108.308594 53 110.140625 51.285156 C 111.972656 49.570312 114.453125 48.742188 117.585938 48.742188 C 119.828125 48.742188 121.601562 49.15625 123.019531 49.925781 C 124.4375 50.695312 125.503906 51.699219 126.269531 52.941406 C 127.039062 54.183594 127.570312 55.484375 127.867188 56.90625 C 128.160156 58.324219 128.28125 59.625 128.28125 60.867188 L 128.28125 70.6875 C 128.28125 71.753906 128.457031 72.523438 128.753906 72.996094 C 129.046875 73.46875 129.636719 73.703125 130.464844 73.703125 L 131.765625 73.703125 L 131.765625 83.996094 L 114.925781 83.996094 L 114.925781 65.484375 Z M 114.867188 65.484375 "/>
<path style=" stroke:none;fill-rule:nonzero;fill:rgb(99.215686%,20.392157%,12.54902%);fill-opacity:1;" d="M 157.054688 65.484375 C 157.054688 63.589844 156.996094 62.996094 156.820312 62.523438 C 156.640625 62.050781 156.464844 61.695312 156.226562 61.402344 C 155.992188 61.164062 155.753906 60.988281 155.460938 60.867188 C 155.164062 60.808594 154.867188 60.75 154.632812 60.75 C 153.570312 60.75 152.800781 61.164062 152.269531 61.933594 C 151.738281 62.703125 151.5 63.824219 151.5 65.246094 L 151.5 70.6875 C 151.5 71.753906 151.679688 72.523438 151.972656 72.996094 C 152.269531 73.46875 152.859375 73.703125 153.6875 73.703125 L 154.988281 73.703125 L 154.988281 83.996094 L 134.660156 83.996094 L 134.660156 73.644531 L 136.078125 73.644531 C 136.730469 73.644531 137.261719 73.351562 137.617188 72.816406 C 137.96875 72.285156 138.148438 71.632812 138.148438 70.867188 L 138.148438 64.003906 C 138.148438 63.058594 137.910156 62.40625 137.496094 62.050781 C 137.023438 61.695312 136.550781 61.519531 135.960938 61.519531 L 134.660156 61.519531 L 134.660156 50.160156 L 149.136719 50.160156 L 148.605469 58.5625 L 149.019531 58.5625 C 149.375 55.425781 150.496094 53 152.328125 51.285156 C 154.160156 49.570312 156.640625 48.742188 159.773438 48.742188 C 162.019531 48.742188 163.792969 49.15625 165.210938 49.925781 C 166.628906 50.695312 167.691406 51.699219 168.460938 52.941406 C 169.226562 54.183594 169.757812 55.484375 170.054688 56.90625 C 170.351562 58.324219 170.46875 59.625 170.46875 60.867188 L 170.46875 70.6875 C 170.46875 71.753906 170.644531 72.523438 170.941406 72.996094 C 171.234375 73.46875 171.828125 73.703125 172.652344 73.703125 L 173.953125 73.703125 L 173.953125 83.996094 L 157.113281 83.996094 L 157.113281 65.484375 Z M 157.054688 65.484375 "/>
<path style=" stroke:none;fill-rule:nonzero;fill:rgb(99.215686%,20.392157%,12.54902%);fill-opacity:1;" d="M 188.902344 54.300781 C 188.074219 54.300781 187.425781 54.363281 186.835938 54.539062 C 186.246094 54.65625 185.773438 54.835938 185.359375 55.070312 C 184.945312 55.25 184.589844 55.484375 184.355469 55.722656 C 184.058594 55.957031 183.820312 56.195312 183.644531 56.371094 L 183.882812 56.667969 C 184.175781 56.492188 184.53125 56.253906 184.886719 56.078125 C 185.238281 55.898438 185.710938 55.78125 186.246094 55.78125 C 187.191406 55.78125 187.957031 56.136719 188.667969 56.90625 C 189.316406 57.675781 189.671875 58.859375 189.671875 60.511719 C 189.671875 62.109375 189.140625 63.351562 188.136719 64.300781 C 187.132812 65.246094 185.710938 65.71875 184 65.71875 C 182.34375 65.71875 181.046875 65.128906 180.039062 63.945312 C 179.035156 62.761719 178.5625 61.046875 178.5625 58.917969 C 178.5625 57.734375 178.859375 56.550781 179.390625 55.367188 C 179.921875 54.183594 180.75 53.121094 181.871094 52.171875 C 182.996094 51.226562 184.414062 50.457031 186.1875 49.867188 C 187.898438 49.273438 190.027344 48.980469 192.507812 48.980469 C 195.460938 48.980469 197.824219 49.332031 199.714844 49.984375 C 201.546875 50.695312 203.027344 51.582031 204.03125 52.644531 C 205.035156 53.710938 205.742188 54.953125 206.15625 56.3125 C 206.570312 57.675781 206.75 59.09375 206.75 60.453125 L 206.75 71.871094 C 206.75 73.644531 206.808594 74.886719 206.867188 75.480469 C 206.984375 76.128906 207.339844 76.425781 207.929688 76.425781 C 208.402344 76.425781 208.757812 76.128906 208.933594 75.539062 C 209.113281 74.945312 209.230469 73.941406 209.230469 72.523438 L 209.230469 68.914062 L 211.949219 68.914062 L 211.949219 72.640625 C 211.949219 74.414062 211.828125 75.953125 211.59375 77.3125 C 211.355469 78.675781 210.882812 79.855469 210.234375 80.804688 C 209.582031 81.75 208.699219 82.519531 207.515625 82.992188 C 206.394531 83.464844 204.917969 83.761719 203.144531 83.761719 C 201.546875 83.761719 200.25 83.523438 199.183594 83.109375 C 198.121094 82.695312 197.292969 82.164062 196.703125 81.511719 C 196.113281 80.863281 195.640625 80.210938 195.402344 79.5625 C 195.167969 78.910156 194.988281 78.257812 194.988281 77.726562 L 194.636719 77.726562 C 194.515625 78.554688 194.28125 79.324219 193.808594 80.035156 C 193.335938 80.742188 192.746094 81.394531 191.917969 81.988281 C 191.148438 82.519531 190.144531 82.992188 189.082031 83.347656 C 187.957031 83.703125 186.71875 83.878906 185.300781 83.878906 C 183.941406 83.878906 182.699219 83.703125 181.578125 83.40625 C 180.453125 83.109375 179.507812 82.578125 178.742188 81.867188 C 177.972656 81.160156 177.382812 80.269531 176.910156 79.148438 C 176.496094 78.023438 176.257812 76.722656 176.257812 75.183594 C 176.257812 73.289062 176.671875 71.8125 177.558594 70.746094 C 178.386719 69.683594 179.507812 68.796875 180.75 68.144531 C 182.050781 67.492188 183.46875 66.960938 184.945312 66.605469 C 186.480469 66.191406 187.839844 65.71875 189.140625 65.128906 C 190.441406 64.535156 191.503906 63.824219 192.332031 62.9375 C 193.15625 62.050781 193.628906 60.75 193.628906 59.09375 C 193.628906 57.617188 193.277344 56.433594 192.507812 55.542969 C 191.800781 54.714844 190.617188 54.300781 188.902344 54.300781 Z M 193.6875 67.019531 C 193.335938 67.671875 192.921875 68.144531 192.390625 68.558594 C 191.859375 68.914062 191.386719 69.328125 190.914062 69.683594 C 190.441406 70.039062 190.027344 70.453125 189.671875 70.984375 C 189.316406 71.457031 189.140625 72.167969 189.140625 72.996094 C 189.140625 73.644531 189.257812 74.238281 189.554688 74.769531 C 189.847656 75.300781 190.378906 75.539062 191.207031 75.539062 C 191.976562 75.539062 192.566406 75.183594 193.039062 74.472656 C 193.511719 73.765625 193.75 72.757812 193.75 71.457031 L 193.75 67.019531 Z M 193.6875 67.019531 "/>
<path style=" stroke:none;fill-rule:nonzero;fill:rgb(99.215686%,20.392157%,12.54902%);fill-opacity:1;" d="M 229.554688 59.035156 L 229.554688 72.996094 C 229.554688 74 229.792969 74.652344 230.265625 74.945312 C 230.738281 75.242188 231.386719 75.421875 232.15625 75.421875 L 232.746094 75.421875 L 232.746094 83.703125 L 213.957031 83.703125 L 213.957031 75.421875 L 214.84375 75.421875 C 215.613281 75.421875 216.203125 75.183594 216.617188 74.652344 C 216.972656 74.179688 217.207031 73.585938 217.207031 73.054688 L 217.207031 69.917969 C 217.207031 69.03125 216.910156 68.441406 216.378906 68.027344 C 215.847656 67.613281 215.199219 67.433594 214.488281 67.433594 L 213.957031 67.433594 L 213.957031 59.152344 L 229.554688 59.152344 Z M 216.792969 53.535156 C 216.792969 52.230469 217.265625 51.167969 218.269531 50.222656 C 219.273438 49.332031 220.632812 48.859375 222.464844 48.859375 C 224.296875 48.859375 225.714844 49.332031 226.71875 50.222656 C 227.726562 51.109375 228.199219 52.230469 228.199219 53.535156 C 228.199219 54.835938 227.726562 55.957031 226.71875 56.847656 C 225.714844 57.734375 224.296875 58.207031 222.464844 58.207031 C 220.632812 58.207031 219.273438 57.734375 218.269531 56.847656 C 217.265625 55.957031 216.792969 54.835938 216.792969 53.535156 Z M 216.792969 53.535156 "/>
<path style=" stroke:none;fill-rule:nonzero;fill:rgb(99.215686%,20.392157%,12.54902%);fill-opacity:1;" d="M 262.527344 61.222656 L 256.027344 61.222656 C 255.554688 59.746094 254.847656 58.621094 253.902344 57.792969 C 252.957031 56.964844 251.949219 56.550781 250.886719 56.550781 C 250.179688 56.550781 249.585938 56.726562 249.171875 57.023438 C 248.761719 57.378906 248.523438 57.851562 248.523438 58.503906 C 248.523438 59.332031 248.878906 59.921875 249.585938 60.335938 C 250.296875 60.75 251.242188 61.105469 252.304688 61.460938 C 253.429688 61.757812 254.609375 62.167969 255.851562 62.644531 C 257.152344 63.117188 258.332031 63.765625 259.394531 64.59375 C 260.519531 65.421875 261.40625 66.605469 262.113281 68.027344 C 262.824219 69.445312 263.179688 71.339844 263.179688 73.644531 C 263.179688 75.480469 262.882812 77.019531 262.230469 78.378906 C 261.582031 79.738281 260.753906 80.863281 259.632812 81.691406 C 258.511719 82.578125 257.269531 83.230469 255.792969 83.640625 C 254.316406 84.058594 252.71875 84.292969 251.003906 84.292969 C 249.351562 84.292969 247.757812 84.117188 246.277344 83.703125 C 244.800781 83.289062 243.382812 82.578125 242.023438 81.632812 L 241.789062 83.703125 L 235.523438 83.703125 L 235.523438 71.574219 L 242.023438 71.574219 C 242.617188 73.171875 243.441406 74.414062 244.328125 75.300781 C 245.273438 76.191406 246.277344 76.601562 247.460938 76.601562 C 248.347656 76.601562 248.9375 76.425781 249.292969 76.011719 C 249.644531 75.597656 249.824219 75.125 249.824219 74.652344 C 249.824219 73.824219 249.46875 73.171875 248.761719 72.757812 C 248.050781 72.285156 247.164062 71.929688 246.101562 71.574219 C 245.039062 71.21875 243.855469 70.804688 242.617188 70.390625 C 241.316406 69.976562 240.191406 69.328125 239.128906 68.5 C 238.066406 67.671875 237.179688 66.546875 236.46875 65.1875 C 235.761719 63.765625 235.40625 61.933594 235.40625 59.683594 C 235.40625 58.027344 235.703125 56.550781 236.292969 55.191406 C 236.882812 53.828125 237.710938 52.707031 238.773438 51.757812 C 239.839844 50.8125 241.078125 50.101562 242.554688 49.628906 C 244.03125 49.15625 245.570312 48.859375 247.34375 48.859375 C 249.292969 48.859375 251.003906 49.15625 252.601562 49.6875 C 254.136719 50.222656 255.320312 50.871094 256.085938 51.523438 L 256.324219 49.394531 L 262.585938 49.394531 L 262.585938 61.222656 Z M 262.527344 61.222656 "/>
<path style=" stroke:none;fill-rule:nonzero;fill:rgb(99.215686%,20.392157%,12.54902%);fill-opacity:1;" d="M 280.371094 68.675781 C 280.429688 71.695312 280.902344 73.703125 281.847656 74.886719 C 282.734375 76.011719 284.035156 76.601562 285.75 76.601562 C 286.339844 76.601562 286.871094 76.484375 287.402344 76.308594 C 287.933594 76.128906 288.46875 75.835938 288.941406 75.363281 C 289.414062 74.945312 289.824219 74.355469 290.121094 73.644531 C 290.476562 72.9375 290.652344 72.046875 290.769531 70.925781 L 300.226562 70.925781 C 299.871094 73.527344 299.222656 75.65625 298.335938 77.429688 C 297.390625 79.207031 296.207031 80.566406 294.789062 81.691406 C 293.3125 82.753906 291.65625 83.523438 289.707031 83.996094 C 287.757812 84.46875 285.628906 84.707031 283.265625 84.707031 C 280.84375 84.707031 278.539062 84.351562 276.414062 83.640625 C 274.285156 82.933594 272.394531 81.808594 270.800781 80.332031 C 269.203125 78.851562 267.902344 77.019531 267.019531 74.769531 C 266.132812 72.523438 265.660156 69.859375 265.660156 66.785156 C 265.660156 63.824219 266.074219 61.222656 266.960938 59.035156 C 267.84375 56.847656 269.027344 54.953125 270.621094 53.472656 C 272.160156 51.996094 274.050781 50.871094 276.175781 50.101562 C 278.304688 49.332031 280.667969 48.980469 283.207031 48.980469 C 286.339844 48.980469 289.058594 49.453125 291.304688 50.398438 C 293.546875 51.34375 295.4375 52.707031 296.855469 54.421875 C 298.277344 56.136719 299.339844 58.207031 300.046875 60.632812 C 300.699219 63.058594 301.050781 65.777344 300.992188 68.734375 L 280.371094 68.734375 Z M 284.210938 56.964844 C 283.03125 56.964844 282.085938 57.4375 281.554688 58.445312 C 280.960938 59.449219 280.609375 61.105469 280.371094 63.351562 L 287.933594 63.351562 C 287.816406 61.402344 287.460938 59.804688 286.871094 58.679688 C 286.222656 57.554688 285.335938 56.964844 284.210938 56.964844 Z M 284.210938 56.964844 "/>
</g>
</svg>
