<svg xmlns="http://www.w3.org/2000/svg" xmlns:xlink="http://www.w3.org/1999/xlink" version="1.1" viewBox="3.75 3.75 660.4 316.8">
<g id="surface1">
<path style=" stroke:none;fill-rule:nonzero;fill:rgb(0%,0%,0%);fill-opacity:1;" d="M 145.917969 274.183594 C 142.148438 274.183594 121.796875 274.191406 120.300781 274.195312 C 123.082031 266.636719 129.953125 247.484375 132.882812 239.75 C 135.414062 247.570312 145.835938 273.933594 145.917969 274.183594 M 153.582031 221.710938 C 151.992188 217.503906 148.976562 215.707031 143.472656 215.605469 C 142.96875 215.59375 117.445312 215.628906 117.445312 215.628906 L 79.683594 318.539062 C 79.683594 318.539062 98.046875 318.527344 98.058594 318.527344 C 99.648438 318.640625 101.128906 318.402344 102.4375 317.800781 C 106.023438 316.164062 107.785156 312.007812 108.292969 310.597656 C 108.285156 310.617188 113.425781 296.269531 113.777344 295.335938 C 116.40625 295.328125 149.746094 295.3125 151.777344 295.3125 C 152.566406 297.742188 159.503906 318.484375 159.503906 318.484375 L 184.359375 318.484375 L 168.597656 268.410156 L 153.582031 221.710938 "/>
<path style=" stroke:none;fill-rule:nonzero;fill:rgb(0%,0%,0%);fill-opacity:1;" d="M 333.3125 296.640625 C 318.316406 296.640625 306.566406 283.65625 306.566406 267.078125 C 306.566406 250.644531 318.0625 238.253906 333.308594 238.253906 C 348.421875 238.253906 359.394531 250.375 359.394531 267.078125 C 359.394531 283.933594 348.183594 296.640625 333.3125 296.640625 M 332.574219 214.800781 L 332.5625 214.800781 C 303.140625 214.847656 281.789062 236.953125 281.789062 267.351562 C 281.789062 297.132812 303.617188 319.597656 332.574219 319.597656 C 361.535156 319.597656 384.226562 296.652344 384.226562 267.351562 C 384.226562 237.882812 361.535156 214.800781 332.574219 214.800781 "/>
<path style=" stroke:none;fill-rule:nonzero;fill:rgb(0%,0%,0%);fill-opacity:1;" d="M 450.804688 258.121094 L 449.84375 257.847656 C 449.875 257.851562 440.273438 254.925781 440.25 254.914062 L 438.816406 254.390625 C 430.980469 251.554688 425.410156 249.179688 425.410156 244.613281 C 425.410156 244.503906 425.417969 244.386719 425.417969 244.277344 C 426.183594 236.703125 440.25 236.613281 440.394531 236.613281 C 448.136719 236.613281 454.097656 237.796875 461.652344 240.835938 L 461.816406 240.90625 L 462.136719 240.996094 C 463.878906 241.359375 465.390625 241.398438 466.640625 241.121094 L 468.730469 240.332031 C 471.722656 238.671875 474.714844 229.925781 475.863281 226.246094 L 476.234375 225.058594 L 475.308594 224.207031 C 474.941406 223.871094 472.726562 222.050781 464.746094 219.070312 C 456.613281 216.027344 445.085938 215.542969 445.085938 215.542969 L 439.402344 215.519531 C 409.726562 215.519531 398.394531 233.847656 398.035156 246.167969 C 397.78125 258.433594 404.757812 264.753906 415.3125 270.46875 C 419.730469 272.9375 427.761719 275.167969 433.628906 276.804688 C 433.601562 276.796875 439.675781 278.585938 439.675781 278.585938 C 450.738281 282.054688 454.949219 285.917969 454.171875 291.90625 C 453.820312 293.890625 450.085938 297.167969 441.589844 297.167969 C 435.144531 297.167969 429.304688 296.175781 423.226562 294.046875 C 420.296875 292.894531 417.28125 291.390625 414.082031 289.503906 L 413.925781 289.410156 L 413.613281 289.269531 C 411.84375 288.613281 410.261719 288.328125 408.90625 288.429688 L 406.570312 288.945312 C 403.179688 290.214844 398.417969 298.878906 396.53125 302.546875 L 395.789062 303.988281 L 397.074219 305.003906 C 397.289062 305.179688 402.574219 309.363281 407.054688 311.988281 C 412.320312 314.910156 418.265625 317.019531 425.25 318.441406 C 428.070312 318.960938 432.546875 319.613281 439.566406 319.613281 C 462.554688 319.613281 479.277344 307.945312 481.191406 290.585938 C 482.039062 274.828125 472.378906 264.550781 450.804688 258.121094 "/>
<path style=" stroke:none;fill-rule:nonzero;fill:rgb(0%,0%,0%);fill-opacity:1;" d="M 499.984375 215.746094 C 499.011719 215.738281 494.015625 215.839844 491.125 218.511719 C 489.796875 219.738281 489.101562 221.359375 489.101562 223.207031 L 489.082031 239.480469 C 489.082031 239.480469 516.835938 239.46875 520.464844 239.46875 C 520.464844 243.296875 520.476562 318.574219 520.476562 318.574219 L 546.175781 318.550781 L 546.175781 239.460938 C 549.59375 239.457031 566.378906 239.453125 566.378906 239.453125 C 567.339844 239.457031 572.339844 239.355469 575.222656 236.679688 C 576.554688 235.453125 577.25 233.832031 577.25 231.984375 L 577.25 215.753906 L 499.984375 215.746094 "/>
<path style=" stroke:none;fill-rule:nonzero;fill:rgb(0%,0%,0%);fill-opacity:1;" d="M 58.992188 295.277344 L 30.132812 295.277344 C 30.132812 291.476562 30.058594 225.140625 30.058594 225.140625 C 30.058594 222.222656 29.171875 219.921875 27.429688 218.292969 C 24.621094 215.679688 20.472656 215.707031 18.910156 215.71875 L 3.75 215.695312 L 3.789062 318.523438 L 68.128906 318.523438 L 68.171875 302.183594 C 68.171875 300.101562 67.28125 295.277344 58.992188 295.277344 "/>
<path style=" stroke:none;fill-rule:nonzero;fill:rgb(0%,0%,0%);fill-opacity:1;" d="M 242.945312 237.605469 C 249.1875 237.195312 254.425781 237.628906 259.386719 238.96875 C 262.03125 239.855469 264.4375 240.027344 266.472656 239.460938 C 266.476562 239.457031 268.535156 238.550781 268.535156 238.550781 C 271.398438 236.765625 273.457031 227.738281 274.429688 222.523438 L 274.660156 221.292969 L 273.617188 220.546875 C 273.351562 220.351562 272.539062 219.773438 263.222656 217.269531 C 254.726562 214.988281 247.183594 214.699219 243.445312 214.722656 L 243.046875 214.726562 C 221.738281 214.726562 189.6875 228.789062 188.761719 267.539062 L 188.761719 267.742188 C 189.6875 306.484375 221.738281 320.546875 243.0625 320.546875 C 243.058594 320.546875 243.453125 320.550781 243.453125 320.550781 C 247.175781 320.582031 254.710938 320.292969 263.222656 318.007812 C 272.539062 315.5 273.351562 314.917969 273.621094 314.730469 L 274.660156 313.984375 L 274.429688 312.753906 C 273.457031 307.527344 271.398438 298.511719 268.535156 296.71875 L 268.523438 296.71875 L 268.535156 296.71875 L 268.523438 296.71875 L 266.476562 295.8125 C 264.4375 295.25 262.03125 295.417969 259.332031 296.320312 C 254.421875 297.648438 249.175781 298.082031 242.871094 297.667969 C 226.75 296.089844 217.046875 285.113281 216.328125 267.554688 C 217.046875 250.164062 226.75 239.1875 242.945312 237.605469 "/>
<path style=" stroke:none;fill-rule:nonzero;fill:rgb(0%,0%,0%);fill-opacity:1;" d="M 653.425781 318.488281 C 657.40625 318.40625 664.148438 316.054688 664.148438 308.152344 L 664.074219 295.246094 L 618.773438 295.265625 C 618.773438 295.265625 618.832031 280.460938 618.84375 278.019531 L 656.253906 278.019531 L 656.183594 254.230469 C 656.183594 254.230469 622.597656 254.273438 618.902344 254.277344 C 618.890625 251.457031 618.90625 242.324219 618.898438 239.484375 C 622.605469 239.484375 653.222656 239.453125 653.222656 239.453125 C 654.183594 239.457031 659.296875 239.464844 662.074219 236.679688 C 664.019531 234.738281 664.105469 231.199219 664.105469 229.355469 L 664.105469 215.785156 L 592.824219 215.777344 L 592.859375 318.570312 L 653.425781 318.488281 "/>
<path style=" stroke:none;fill-rule:nonzero;fill:rgb(79.215686%,0%,22.352941%);fill-opacity:1;" d="M 434.355469 126.28125 C 434.355469 126.28125 434.429688 120.429688 428.324219 116.578125 C 418.476562 110.371094 423.5625 106.390625 423.238281 106.46875 C 423.238281 106.46875 413.210938 98.148438 396.019531 104.378906 C 378.828125 110.597656 377.839844 109.949219 374.402344 107.488281 C 370.964844 105.03125 363.761719 106.34375 364.910156 110.4375 C 366.050781 114.535156 368.832031 132.558594 390.941406 121.253906 C 413.042969 109.949219 396.019531 140.589844 438.75 145.335938 C 481.484375 150.097656 507.359375 147.960938 479.027344 137.964844 C 450.703125 127.96875 442.867188 126.9375 442.867188 126.9375 L 434.355469 126.28125 "/>
<path style=" stroke:none;fill-rule:nonzero;fill:rgb(100%,100%,100%);fill-opacity:1;" d="M 419.492188 90.457031 C 419.492188 90.457031 419.582031 89.003906 416.660156 87.125 C 411.699219 83.917969 409.085938 87.242188 409.085938 87.242188 C 409.085938 87.242188 406.734375 89.296875 408.4375 92.457031 C 408.4375 92.457031 417.828125 91.289062 419.492188 90.457031 "/>
<path style=" stroke:none;fill-rule:nonzero;fill:rgb(100%,100%,100%);fill-opacity:1;" d="M 428.660156 85.703125 C 428.660156 85.703125 427.519531 87.699219 428.539062 88.402344 C 429.046875 88.753906 434.21875 87.296875 434.628906 87.078125 C 435.035156 86.867188 432.378906 79.71875 428.660156 85.703125 "/>
<path style=" stroke:none;fill-rule:nonzero;fill:rgb(0%,36.470588%,20.392157%);fill-opacity:1;" d="M 431.695312 110.398438 C 433.742188 109.652344 435.515625 113.632812 437.660156 112.824219 C 439.925781 111.964844 438.265625 107.972656 440.71875 107.046875 C 442.988281 106.199219 444.484375 110.25 446.660156 109.441406 C 448.972656 108.585938 447.503906 104.46875 449.691406 103.679688 C 451.972656 102.855469 453.296875 106.917969 455.664062 106.058594 C 458.019531 105.195312 456.484375 101.128906 458.660156 100.304688 C 460.859375 99.480469 462.476562 103.5 464.644531 102.710938 C 466.714844 101.945312 465.542969 97.695312 467.671875 96.921875 C 469.914062 96.109375 471.363281 100.125 473.753906 99.261719 C 475.691406 98.558594 474.625 94.285156 476.640625 93.527344 C 478.691406 92.753906 480.5625 96.722656 482.675781 95.929688 C 484.667969 95.179688 483.484375 90.949219 485.609375 90.160156 C 487.835938 89.328125 489.558594 93.308594 491.65625 92.550781 C 493.730469 91.800781 492.171875 88.355469 494.882812 87.027344 C 494.882812 87.027344 498.652344 85.761719 498.429688 82.976562 C 498.382812 82.519531 497.597656 76.554688 491.394531 75.304688 C 485.4375 74.105469 438.300781 87.226562 437.714844 86.457031 C 433.363281 77.839844 427.804688 80.242188 426.953125 80.421875 C 426.085938 80.625 420.84375 82.917969 414.996094 80.660156 C 403.558594 75.441406 394.417969 88.695312 388.171875 86.945312 C 382.382812 85.324219 377.976562 86.242188 375.558594 87.078125 C 373.332031 87.847656 369.753906 90.75 362.136719 88.128906 C 303.304688 67.890625 257.300781 85.582031 257.300781 85.582031 C 231.371094 94.285156 228.046875 85.585938 228.046875 85.585938 C 228.046875 85.585938 219.53125 73.90625 279.605469 60.007812 C 365.960938 40.019531 368.550781 6.972656 367.554688 4.898438 C 366.113281 1.867188 365.585938 5.429688 362.734375 8.71875 C 360.363281 11.453125 357.589844 10.097656 357.589844 10.097656 C 354.871094 8.785156 353.144531 11.921875 353.144531 11.921875 C 353.144531 11.921875 349.632812 17.363281 346.539062 14.273438 C 343.578125 11.296875 339.613281 18.035156 338.148438 18.296875 C 336.390625 18.605469 335.539062 17.738281 333.152344 16.664062 C 329.605469 15.0625 325.804688 21.59375 323.855469 22.035156 C 320.859375 22.722656 318.765625 18.492188 316.222656 20.265625 C 308.542969 25.597656 307.324219 26.371094 305.265625 24.273438 C 303.734375 22.710938 303.515625 21.011719 298.398438 25.945312 C 294.019531 30.160156 291.945312 30.925781 290.179688 28.265625 C 288.371094 25.566406 288.847656 21.894531 281.359375 29.132812 C 277.777344 32.585938 275.945312 32.652344 273.890625 31.09375 C 272.351562 29.933594 272.371094 24.367188 266.96875 29.40625 C 262.109375 33.945312 258.558594 35.941406 257.191406 31.902344 C 255.664062 27.382812 249.933594 32.722656 248.589844 33.992188 C 247.226562 35.261719 244.269531 38.59375 242.199219 35.136719 C 240.117188 31.707031 235.171875 36.867188 232.238281 40.144531 C 229.949219 42.679688 228.101562 40.730469 225.730469 39.105469 C 222.988281 37.222656 214.847656 48.683594 214.101562 49.367188 C 213.359375 50.035156 212.789062 49.390625 210.921875 47.796875 C 208.039062 45.339844 200.292969 58.933594 199.054688 59.828125 C 199.054688 59.828125 198.507812 61.007812 196.398438 58.984375 C 193.410156 56.117188 177.4375 77.230469 171.421875 101.167969 C 163.722656 131.839844 175.988281 155.328125 175.988281 155.328125 C 175.988281 155.328125 179.671875 155.441406 181.25 152.917969 L 183.640625 147.503906 C 185.574219 143.003906 188.734375 144.429688 188.734375 144.429688 L 181.21875 166.949219 C 180.050781 169.925781 180.761719 174.117188 183.371094 178.101562 C 185.847656 182.085938 187.566406 184.78125 189.554688 186.648438 C 195.671875 192.445312 195.046875 185.597656 195.207031 184.738281 C 195.914062 181.0625 199.953125 183.867188 203.105469 185.648438 C 208.855469 188.886719 208.21875 181.71875 209.472656 179.367188 C 210.339844 177.714844 213.1875 177.628906 216.25 180.21875 C 218.636719 182.222656 221.015625 175.425781 221.015625 175.425781 C 223.980469 160.933594 216.996094 159.230469 213.203125 159.046875 L 205.542969 158.683594 C 205.542969 158.683594 206.058594 156.484375 206.832031 154.398438 L 207.191406 152.964844 C 215.539062 131.996094 201.574219 127.9375 197.390625 128.292969 C 192.796875 128.691406 193.117188 125.734375 193.117188 125.734375 C 193.117188 125.734375 218.351562 120.75 213.652344 147.683594 C 213.652344 147.683594 212.71875 152.367188 212.15625 154.820312 L 219.089844 155.628906 C 225.074219 156.375 226.132812 163.492188 226.132812 163.492188 C 226.132812 163.492188 248.070312 169.316406 260.519531 166.984375 C 260.519531 166.984375 266.109375 165.652344 267.636719 162.179688 C 267.636719 162.179688 275.699219 143.046875 299.246094 142.242188 C 299.246094 142.242188 300.085938 144.734375 296.3125 145.996094 C 291.78125 147.527344 276.789062 148.742188 273.660156 166.117188 L 273.648438 166.179688 C 273.300781 169.019531 274.070312 175.101562 280.222656 177.917969 C 285.445312 180.292969 287.296875 189.882812 288.371094 192.464844 C 291.4375 199.820312 295.996094 192.785156 295.996094 192.785156 C 295.996094 192.785156 298.894531 186.859375 301.363281 190.136719 C 305.566406 195.710938 307.511719 192.910156 308.464844 189.378906 C 309.5 185.558594 311.023438 183.890625 315.410156 188.535156 C 317.28125 190.542969 320.960938 188.992188 321.324219 185.53125 C 322.09375 177.960938 327.195312 183.976562 327.929688 184.28125 C 328.796875 184.628906 334.132812 183.394531 331.160156 174.855469 C 331.160156 174.855469 327.113281 166.707031 308.941406 163.175781 C 304.671875 162.34375 305.347656 159.234375 305.347656 159.234375 L 309.375 159.808594 C 310.554688 160.023438 321.128906 161.1875 322.269531 161.375 C 366.597656 165.78125 400.226562 150.644531 401.242188 149.566406 L 401.25 149.566406 C 435.699219 156.195312 482.523438 153.925781 491.316406 150.75 C 500.128906 147.589844 500.796875 142.425781 499.765625 141.042969 C 498.46875 139.324219 496.359375 138.632812 494.902344 137.964844 C 493.460938 137.300781 493.679688 135.886719 492.480469 135.5 C 491.277344 135.113281 489.132812 137.601562 487.476562 137.066406 C 485.824219 136.535156 485.957031 133.40625 484.554688 132.953125 C 483.148438 132.5 480.667969 134.855469 479.378906 134.441406 C 478.082031 134.023438 477.832031 130.765625 476.585938 130.363281 C 475.34375 129.964844 472.710938 132.320312 471.421875 131.902344 C 470.128906 131.484375 470.054688 128.289062 468.632812 127.828125 C 467.199219 127.371094 464.714844 129.746094 463.453125 129.335938 C 462.175781 128.929688 462.066406 125.71875 460.675781 125.269531 C 459.296875 124.824219 456.773438 127.167969 455.480469 126.753906 C 454.191406 126.335938 453.820312 123.0625 452.621094 122.675781 C 451.425781 122.289062 449.019531 124.234375 447.09375 124.117188 C 433.636719 122.84375 428.496094 114.339844 427.589844 116.832031 C 426.683594 119.316406 430.378906 125.320312 435.046875 127.355469 C 438.734375 128.964844 478.8125 140.125 479.855469 140.636719 C 480.890625 141.144531 483.394531 142.289062 482.523438 143.75 C 481.117188 145.617188 477.199219 143.769531 476.222656 142.945312 C 475.199219 142.085938 475.421875 141.78125 474.480469 141.546875 C 472.339844 141.011719 471.152344 144.96875 468.890625 144.4375 C 466.816406 143.953125 466.949219 139.777344 464.863281 139.289062 C 462.550781 138.746094 461.480469 142.703125 459.277344 142.179688 C 457.460938 141.757812 457.210938 137.484375 455.257812 137.023438 C 452.984375 136.496094 451.964844 140.460938 449.625 139.910156 C 447.605469 139.4375 447.714844 135.261719 445.609375 134.773438 C 443.5 134.273438 442.019531 138.132812 440.027344 137.664062 C 438.027344 137.195312 437.75 132.945312 435.953125 132.527344 C 434.15625 132.097656 432.714844 134.285156 430.261719 134.589844 C 430.261719 134.589844 423.265625 136.503906 412.195312 124.867188 C 401.082031 113.230469 396.527344 110.976562 390.210938 115.703125 C 379.878906 123.4375 373.492188 118.308594 371.601562 116.03125 C 369.386719 113.378906 371.722656 110.964844 371.722656 110.964844 C 371.722656 110.964844 375.011719 116.042969 379.125 116.164062 C 385.761719 116.363281 390.785156 107.210938 402.175781 107.066406 C 416.589844 106.539062 420.359375 111.695312 424.292969 112.089844 C 427.960938 112.460938 429.167969 111.867188 431.699219 110.398438 L 431.695312 110.398438 "/>
<path style=" stroke:none;fill-rule:nonzero;fill:rgb(100%,100%,100%);fill-opacity:1;" d="M 419.601562 90.398438 C 419.601562 90.398438 419.6875 88.945312 416.773438 87.0625 C 411.808594 83.851562 409.191406 87.183594 409.191406 87.183594 C 409.191406 87.183594 406.847656 89.234375 408.550781 92.398438 C 408.550781 92.398438 417.941406 91.226562 419.601562 90.398438 "/>
<path style=" stroke:none;fill-rule:nonzero;fill:rgb(100%,100%,100%);fill-opacity:1;" d="M 428.773438 85.644531 C 428.773438 85.644531 427.632812 87.640625 428.65625 88.34375 C 429.15625 88.691406 434.332031 87.238281 434.742188 87.019531 C 435.144531 86.808594 432.496094 79.664062 428.773438 85.644531 "/>
<path style=" stroke:none;fill-rule:nonzero;fill:rgb(100%,100%,100%);fill-opacity:1;" d="M 326.382812 112.402344 C 326.382812 112.402344 333.371094 108.609375 334.859375 109.722656 C 336.351562 110.832031 334.949219 117.367188 333.886719 116.433594 L 326.382812 112.402344 "/>
<path style=" stroke:none;fill-rule:nonzero;fill:rgb(100%,100%,100%);fill-opacity:1;" d="M 329.035156 100.285156 C 329.035156 100.285156 336.015625 96.488281 337.511719 97.609375 C 339 98.714844 337.582031 105.253906 336.539062 104.296875 L 329.035156 100.285156 "/>
<path style=" stroke:none;fill-rule:nonzero;fill:rgb(100%,100%,100%);fill-opacity:1;" d="M 343.597656 102.914062 C 343.597656 102.914062 350.582031 99.109375 352.070312 100.226562 C 353.554688 101.34375 352.144531 107.882812 351.097656 106.929688 L 343.597656 102.914062 "/>
<path style=" stroke:none;fill-rule:nonzero;fill:rgb(100%,100%,100%);fill-opacity:1;" d="M 331.875 87.871094 C 331.875 87.871094 338.867188 84.070312 340.359375 85.183594 C 341.839844 86.285156 340.425781 92.8125 339.390625 91.886719 L 331.875 87.871094 "/>
<path style=" stroke:none;fill-rule:nonzero;fill:rgb(100%,100%,100%);fill-opacity:1;" d="M 314.097656 97.996094 C 314.097656 97.996094 321.074219 94.214844 322.558594 95.320312 C 324.039062 96.4375 322.640625 102.96875 321.585938 102.027344 L 314.097656 97.996094 "/>
<path style=" stroke:none;fill-rule:nonzero;fill:rgb(100%,100%,100%);fill-opacity:1;" d="M 311.675781 110.523438 C 311.675781 110.523438 318.664062 106.730469 320.148438 107.839844 C 321.640625 108.953125 320.242188 115.476562 319.191406 114.550781 L 311.675781 110.523438 "/>
<path style=" stroke:none;fill-rule:nonzero;fill:rgb(100%,100%,100%);fill-opacity:1;" d="M 296.070312 110.53125 C 296.070312 110.53125 303.054688 106.730469 304.535156 107.839844 C 306.027344 108.953125 304.617188 115.488281 303.558594 114.542969 L 296.070312 110.53125 "/>
<path style=" stroke:none;fill-rule:nonzero;fill:rgb(100%,100%,100%);fill-opacity:1;" d="M 298.519531 97.28125 C 298.519531 97.28125 305.515625 93.464844 307.007812 94.582031 C 308.476562 95.695312 307.074219 102.222656 306.03125 101.285156 L 298.519531 97.28125 "/>
<path style=" stroke:none;fill-rule:nonzero;fill:rgb(100%,100%,100%);fill-opacity:1;" d="M 301.335938 84.066406 C 301.335938 84.066406 308.328125 80.253906 309.820312 81.386719 C 311.300781 82.496094 309.890625 89.03125 308.847656 88.085938 L 301.335938 84.066406 "/>
<path style=" stroke:none;fill-rule:nonzero;fill:rgb(100%,100%,100%);fill-opacity:1;" d="M 283.1875 97.945312 C 283.1875 97.945312 290.179688 94.132812 291.660156 95.257812 C 293.136719 96.367188 291.742188 102.894531 290.6875 101.949219 L 283.1875 97.945312 "/>
<path style=" stroke:none;fill-rule:nonzero;fill:rgb(100%,100%,100%);fill-opacity:1;" d="M 285.660156 84.765625 C 285.660156 84.765625 292.636719 80.960938 294.113281 82.074219 C 295.621094 83.199219 294.214844 89.71875 293.148438 88.777344 L 285.660156 84.765625 "/>
<path style=" stroke:none;fill-rule:nonzero;fill:rgb(100%,100%,100%);fill-opacity:1;" d="M 269.648438 86.914062 C 269.648438 86.914062 276.636719 83.113281 278.125 84.214844 C 279.597656 85.332031 278.199219 91.882812 277.152344 90.933594 L 269.648438 86.914062 "/>
<path style=" stroke:none;fill-rule:nonzero;fill:rgb(100%,100%,100%);fill-opacity:1;" d="M 267.039062 99.878906 C 267.039062 99.878906 274.019531 96.074219 275.511719 97.171875 C 277.007812 98.300781 275.589844 104.835938 274.542969 103.882812 L 267.039062 99.878906 "/>
<path style=" stroke:none;fill-rule:nonzero;fill:rgb(100%,100%,100%);fill-opacity:1;" d="M 264.992188 113.113281 C 264.992188 113.113281 271.984375 109.3125 273.464844 110.417969 C 274.960938 111.535156 273.558594 118.082031 272.496094 117.121094 L 264.992188 113.113281 "/>
<path style=" stroke:none;fill-rule:nonzero;fill:rgb(100%,100%,100%);fill-opacity:1;" d="M 281.136719 110.285156 C 281.136719 110.285156 288.113281 106.480469 289.609375 107.597656 C 291.097656 108.707031 289.691406 115.242188 288.644531 114.304688 L 281.136719 110.285156 "/>
<path style=" stroke:none;fill-rule:nonzero;fill:rgb(100%,100%,100%);fill-opacity:1;" d="M 248.578125 118.398438 C 248.578125 118.398438 255.558594 114.601562 257.050781 115.714844 C 258.535156 116.828125 257.117188 123.363281 256.082031 122.417969 L 248.578125 118.398438 "/>
<path style=" stroke:none;fill-rule:nonzero;fill:rgb(100%,100%,100%);fill-opacity:1;" d="M 251.109375 104.960938 C 251.109375 104.960938 258.097656 101.167969 259.582031 102.269531 C 261.058594 103.378906 259.660156 109.910156 258.609375 108.984375 L 251.109375 104.960938 "/>
<path style=" stroke:none;fill-rule:nonzero;fill:rgb(100%,100%,100%);fill-opacity:1;" d="M 253.730469 91.179688 C 253.730469 91.179688 260.699219 87.390625 262.195312 88.503906 C 263.675781 89.617188 262.269531 96.152344 261.214844 95.214844 L 253.730469 91.179688 "/>
<path style=" stroke:none;fill-rule:nonzero;fill:rgb(100%,100%,100%);fill-opacity:1;" d="M 238.0625 94.894531 C 238.0625 94.894531 245.03125 91.121094 246.523438 92.214844 C 248.003906 93.328125 246.597656 99.867188 245.558594 98.921875 L 238.0625 94.894531 "/>
<path style=" stroke:none;fill-rule:nonzero;fill:rgb(100%,100%,100%);fill-opacity:1;" d="M 235.335938 108.195312 C 235.335938 108.195312 242.328125 104.390625 243.808594 105.511719 C 245.292969 106.613281 243.878906 113.152344 242.832031 112.214844 L 235.335938 108.195312 "/>
<path style=" stroke:none;fill-rule:nonzero;fill:rgb(100%,100%,100%);fill-opacity:1;" d="M 232.09375 120.738281 C 232.09375 120.738281 239.082031 116.960938 240.566406 118.050781 C 242.0625 119.167969 240.644531 125.714844 239.59375 124.761719 L 232.09375 120.738281 "/>
<path style=" stroke:none;fill-rule:nonzero;fill:rgb(100%,100%,100%);fill-opacity:1;" d="M 219.070312 109.683594 C 219.070312 109.683594 226.050781 105.882812 227.53125 107.003906 C 229.015625 108.105469 227.617188 114.652344 226.554688 113.707031 L 219.070312 109.683594 "/>
<path style=" stroke:none;fill-rule:nonzero;fill:rgb(100%,100%,100%);fill-opacity:1;" d="M 215.476562 122.28125 C 215.476562 122.28125 222.441406 118.472656 223.933594 119.585938 C 225.417969 120.699219 224.027344 127.230469 222.964844 126.285156 L 215.476562 122.28125 "/>
<path style=" stroke:none;fill-rule:nonzero;fill:rgb(100%,100%,100%);fill-opacity:1;" d="M 202.113281 116.375 C 202.113281 116.375 209.105469 112.566406 210.59375 113.683594 C 212.070312 114.792969 210.660156 121.332031 209.617188 120.402344 L 202.113281 116.375 "/>
<path style=" stroke:none;fill-rule:nonzero;fill:rgb(100%,100%,100%);fill-opacity:1;" d="M 221.546875 97.757812 C 221.546875 97.757812 228.519531 93.964844 230.023438 95.058594 C 231.5 96.1875 230.089844 102.722656 229.042969 101.769531 L 221.546875 97.757812 "/>
<path style=" stroke:none;fill-rule:nonzero;fill:rgb(100%,100%,100%);fill-opacity:1;" d="M 205.472656 102.664062 C 205.472656 102.664062 212.457031 98.871094 213.953125 99.972656 C 215.441406 101.082031 214.027344 107.621094 212.980469 106.6875 L 205.472656 102.664062 "/>
<path style=" stroke:none;fill-rule:nonzero;fill:rgb(100%,100%,100%);fill-opacity:1;" d="M 191.363281 107.585938 C 191.363281 107.585938 198.359375 103.792969 199.828125 104.910156 C 201.320312 106.015625 199.90625 112.542969 198.855469 111.609375 L 191.363281 107.585938 "/>
<path style=" stroke:none;fill-rule:nonzero;fill:rgb(100%,100%,100%);fill-opacity:1;" d="M 214.246094 87.863281 C 214.246094 87.863281 221.230469 84.054688 222.710938 85.175781 C 224.191406 86.277344 222.792969 92.820312 221.730469 91.878906 L 214.246094 87.863281 "/>
<path style=" stroke:none;fill-rule:nonzero;fill:rgb(100%,100%,100%);fill-opacity:1;" d="M 199.957031 91.503906 C 199.957031 91.503906 206.941406 87.703125 208.410156 88.8125 C 209.902344 89.9375 208.5 96.457031 207.449219 95.519531 L 199.957031 91.503906 "/>
<path style=" stroke:none;fill-rule:nonzero;fill:rgb(100%,100%,100%);fill-opacity:1;" d="M 185.457031 96.863281 C 185.457031 96.863281 192.453125 93.070312 193.9375 94.183594 C 195.429688 95.285156 194.015625 101.828125 192.976562 100.890625 L 185.457031 96.863281 "/>
<path style=" stroke:none;fill-rule:nonzero;fill:rgb(100%,100%,100%);fill-opacity:1;" d="M 215.628906 74.933594 C 215.628906 74.933594 222.625 71.128906 224.101562 72.238281 C 225.589844 73.355469 224.175781 79.902344 223.144531 78.953125 L 215.628906 74.933594 "/>
<path style=" stroke:none;fill-rule:nonzero;fill:rgb(100%,100%,100%);fill-opacity:1;" d="M 201.6875 79.15625 C 201.6875 79.15625 208.671875 75.34375 210.152344 76.464844 C 211.644531 77.578125 210.234375 84.109375 209.191406 83.167969 L 201.6875 79.15625 "/>
<path style=" stroke:none;fill-rule:nonzero;fill:rgb(100%,100%,100%);fill-opacity:1;" d="M 186.871094 83.945312 C 186.871094 83.945312 193.855469 80.160156 195.34375 81.25 C 196.824219 82.363281 195.414062 88.914062 194.367188 87.96875 L 186.871094 83.945312 "/>
<path style=" stroke:none;fill-rule:nonzero;fill:rgb(100%,100%,100%);fill-opacity:1;" d="M 221.835938 64.484375 C 221.835938 64.484375 228.8125 60.691406 230.304688 61.804688 C 231.785156 62.925781 230.382812 69.464844 229.335938 68.511719 L 221.835938 64.484375 "/>
<path style=" stroke:none;fill-rule:nonzero;fill:rgb(100%,100%,100%);fill-opacity:1;" d="M 206.609375 66.210938 C 206.609375 66.210938 213.597656 62.410156 215.074219 63.523438 C 216.558594 64.632812 215.164062 71.167969 214.117188 70.230469 L 206.609375 66.210938 "/>
<path style=" stroke:none;fill-rule:nonzero;fill:rgb(100%,100%,100%);fill-opacity:1;" d="M 226.082031 51.703125 C 226.082031 51.703125 233.058594 47.902344 234.542969 49.019531 C 236.019531 50.125 234.625 56.671875 233.589844 55.710938 L 226.082031 51.703125 "/>
<path style=" stroke:none;fill-rule:nonzero;fill:rgb(100%,100%,100%);fill-opacity:1;" d="M 238.273438 47.542969 C 238.273438 47.542969 245.253906 43.757812 246.75 44.847656 C 248.230469 45.980469 246.824219 52.511719 245.785156 51.554688 L 238.273438 47.542969 "/>
<path style=" stroke:none;fill-rule:nonzero;fill:rgb(100%,100%,100%);fill-opacity:1;" d="M 213.132812 56.25 C 213.132812 56.25 220.121094 52.457031 221.601562 53.5625 C 223.089844 54.683594 221.675781 61.195312 220.640625 60.28125 L 213.132812 56.25 "/>
<path style=" stroke:none;fill-rule:nonzero;fill:rgb(100%,100%,100%);fill-opacity:1;" d="M 193.632812 70.738281 C 193.632812 70.738281 200.605469 66.933594 202.09375 68.058594 C 203.574219 69.167969 202.167969 75.710938 201.117188 74.761719 L 193.632812 70.738281 "/>
<path style=" stroke:none;fill-rule:nonzero;fill:rgb(100%,100%,100%);fill-opacity:1;" d="M 316.929688 85.199219 C 316.929688 85.199219 323.921875 81.394531 325.402344 82.503906 C 326.890625 83.617188 325.472656 90.152344 324.425781 89.207031 L 316.929688 85.199219 "/>
</g>
</svg>