<svg class="sm:d-none" xmlns="http://www.w3.org/2000/svg" xmlns:xlink="http://www.w3.org/1999/xlink" x="0px" y="0px" viewBox="0 0 150.2 258" style="enable-background:new 0 0 150.2 258;" xml:space="preserve">
            <g>
              <defs>
                <rect id="SVGID_1_" y="0" width="150.2" height="258"></rect>
              </defs>
              <use xlink:href="#SVGID_1_" style="overflow:visible;fill:#E20026;"></use>
              <clipPath id="SVGID_00000011022606182506913870000009524957571696747445_">
                <use xlink:href="#SVGID_1_" style="overflow:visible;"></use>
              </clipPath>
              <path style="clip-path:url(#SVGID_00000011022606182506913870000009524957571696747445_);fill:#FFFFFF;" d="M62.1,50.5
                c-0.1,0.1-0.3,0.1-0.4,0.2c-4.5-0.1-8.8-3.2-10.9-7.5c-1.4-3-1.8-6.3-1.2-8.8c0.4,0.5,0.7,0.9,1,1.4c0.9,1.9,0.9,3.3,2.1,6
                C54.8,46.2,57.6,48.6,62.1,50.5 M58.5,52.7c-0.8,0.5-1.5,1-2.3,1.6c-0.9-0.2-1.8-0.4-2.6-0.6c-0.7-0.7-1.6-0.9-2.5-0.7
                C37.9,48.5,28.9,37.1,28,23.7l-0.2-2.9c0-2.6,0-3.2,0.5-3.2c0.2,0,0.4,0.2,0.5,0.7l0.9,5.2C32.3,39.8,44.4,50.8,58.5,52.7
                M39.6,63.9c-1.2,0.3-2.1-0.1-2.8-0.5c0.5-0.9,0.7-1.8,0.4-3c-0.4-1.5-2-3.4-3.8-4.7l0-0.1c2.6,0.7,6.7,2.9,7.3,5.4
                C41.1,63,40.5,63.6,39.6,63.9 M71.9,125.2c-2-0.5-3.7-3.8-4.1-5.9l0.1,0c0.9,1.5,2.4,2.8,3.6,3.2c1,0.3,1.7,0.2,2.5-0.2
                c0.3,0.5,0.6,1.3,0.3,2.2C74,125.1,73.5,125.6,71.9,125.2 M80.4,131.8c-1.5-2.4-1-5.8,0.8-8.2c1.2-1.6,2.8-2.6,4.4-3
                c-0.2,0.4-0.3,0.6-0.5,0.9c-0.7,1-1.5,1.3-2.6,2.7C80.7,126.6,80.1,128.8,80.4,131.8 M120.2,41.6c-0.4-0.9-0.2-1.7,0.3-2.9
                l-1.2-0.5c-0.9,1.6-1.5,2.1-2.5,2.5c-2.1,0.8-2.6,0.2-5,1.1c-4.6,1.8-6.2,5.5-6.8,9.1l0,0.1c-2.8-2-6.1-3.6-9.8-4.7
                c-5.3-3.4-8.4-8.4-6.2-13.4c1-2.3,3.1-3.6,5-2.8c0.5,0.2,0.7,0.7,0.6,1.1c-0.3,0.7-1.2,0.4-1.7,1.7c-0.7,1.5,0,2.9,1.2,3.4
                c1.4,0.6,3,0,3.7-1.6c0.9-2.1-0.2-4.4-2.2-5.3c-3-1.3-6.1,0.3-7.4,3.2c-1.2,2.8-0.8,6.6,1,9.7c0.7,1.1,1.5,2.2,2.6,3.2
                c-2.4-0.4-4.8-0.7-7.3-0.7c-2.4,0-4.8,0.2-7.2,0.6c-0.3-0.3-0.6-0.7-0.7-1.2c-0.7-1.6-0.1-3.9,1.5-4.5c0.7-0.3,1.5,0,1.8,0.7
                c0.1,0.2,0.1,0.4,0.1,0.5c0.4,0,0.7-0.1,0.9-0.1c1.4-0.6,1.9-2.1,1.4-3.3c-0.6-1.4-2.2-1.9-3.7-1.2c-0.7,0.3-1.1,0.6-3,2.2
                c0.5-1.5,1.4-2.8,3-3.5c0.6-0.2,1.9-0.3,2.8-0.7c2.4-1,3.7-3.8,2.7-6.1c-0.2-0.5-0.4-0.8-0.9-1.3c-0.6,1.8-0.9,2.2-2.2,2.9
                c0.7-1.4,1-2.5,0.4-3.8c-0.8-1.9-2.9-2.6-4.8-1.9c-1.1,0.4-2,1.3-2.2,2c0.9,0.2,1.5,0.6,1.9,1.5c1.5,3.7-6.3,8.3-2.9,16.7
                c-0.6-0.9-0.8-1.3-1-1.7c-2-4.8,1.6-8.8,0.6-11.2c-0.5-1.3-2.1-1.8-3.3-1.3c-1,0.4-1.5,1.2-1.7,2.1c1,0.4,1.6,0.8,2,1.6
                c1,2.4-1,4.8,0.7,8.9c0.6,1.4,1.3,2.4,2.5,3.5c-0.8,0.2-1.7,0.5-2.5,0.7c0.1-0.5,0-1-0.2-1.4c-0.4-0.8-1.4-1.2-2.3-0.8
                c-0.8,0.4-1.2,1.3-0.8,2.2c0.3,0.6,0.6,0.6,0.8,0.9c-1,0.4-2,0.8-3,1.2c-0.7-0.3-1.2-0.8-1.5-1.5c-0.8-1.7,0-3.6,1.8-4.4
                c0.9-0.4,1.4-0.4,2.9-0.2c0.5-0.9,0.6-2.1,0.1-3.2c-0.9-1.9-3.3-2.7-5-1.8c-3.1,1.5-4,5.4-2.6,8.3c0.2,0.4,0.5,0.8,1,1.5
                c-0.8-0.6-1.3-1.1-1.7-2c-1-2.2-0.8-4.8,0.6-6.6c0.1-0.2,0.2-0.2,1.1-1.3c0.4-0.5,0.7-0.9,0.9-1.5c0.4-1,0.3-2.3-0.2-3.4
                c-0.1-0.2-0.3-0.7-0.4-0.8c-0.4-0.9-0.3-1.4,0.2-2.6c-0.9,0.2-1.4,0.3-2.1,0.6c-4.8,2.3-6.1,7.4-4.7,12.5c-0.4-0.6-0.6-0.9-0.8-1.3
                c-1.8-3.8-0.2-6.1-1.8-9.4c-0.4-0.9-0.8-1.3-1.6-1.9c0.7-1.4,1.5-2.4,2.8-3c1.9-0.9,3.9-0.4,4.7,1.1c0.1,0.3,0.2,0.4,0.2,0.9
                c0.3,0.1,0.6,0.1,1.1-0.1c1.1-0.5,1.6-1.8,1.1-2.9c-1-2-4.5-2.5-7-1.3c-2,0.9-3.1,2.3-4.5,4.5c-1.5-0.3-2.6-0.3-3.9,0.3
                c-1.1,0.5-1.7,1.1-2.3,2.2c1.9-0.1,3.3,0.2,4.9,1.2c-0.5,4.3-0.3,7.3,1.3,10.6c1.6,3.3,4.2,5.9,7.2,7.3
                c-13.8-2.8-23.2-14.2-25.9-28.6L30,18.9c-0.4-2.3-0.9-2.7-1.6-2.7c-1.5,0-2.1,2.6-2.1,8.1c0,3,0.5,6.6,1.6,8.1l1,1.6
                c0,0.9-0.1,1-0.6,1c-0.6,0-1.2-0.8-1.4-0.8c-0.1,0-0.2,0.2-0.2,0.4c0,1.6,1.7,5,1.8,5.3c1,1.7,1.6,2.2,2.6,2.5l1.6,0.4
                c0.5,0.1,0.9,0.6,0.9,1.1c0,0.5-0.5,1.1-1,1.1c-0.2,0-0.5-0.1-1.1-0.3l-0.7-0.3c-0.6-0.3-0.7-0.2-0.8-0.2c-0.3,0-0.5,0.3-0.5,0.6
                c0,1.8,3.3,5.1,5.6,5.1c0.2,0,0.4,0,0.6-0.1l2.9-0.6c0.8,0,1.5,0.4,1.5,1c0,0.6-1,1.9-3.5,1.9c-0.2,0-0.3,0-0.3,0.2
                c0,0.5,5.4,2.4,12.1,3.4c0.2,0,0.4,0.1,0.6,0.1c0,0.1,0,0.3,0.1,0.4c0.2,0.9,0.7,1.1,1.8,0.8c0.7-0.2,1.2-0.1,1.7,0.1
                c-1.4,1.3-2.8,2.6-4,4c-5.8-1.1-13.1-10-22.5-7.8c-6.8,1.6-9.4,7.5-8.3,12.2c1,4,4.8,7.1,9.7,6c4.2-1,5.2-4.7,4.6-6.9
                c-0.6-2.6-2.9-4.6-5.7-3.9c-1.5,0.4-3,2-2.7,3.7c0.5,1.9,1.6,2.7,2.6,2.4c1.2-0.3,1.5-1,1.3-1.6c-0.3-1.1-0.7,0-1-1.2
                c-0.1-0.5,0.2-1,1-1.2c0.7-0.2,2.2,0.2,2.6,2.1c0.4,1.7-0.5,3.8-3.4,4.5c-2.6,0.6-6-0.3-7-4.4c-1.1-4.8,2.3-7.9,6-8.7
                c6-1.4,9.1,2.4,9.6,4.4c0.3,1.3,0,2.1-1.3,2.6l-0.4,0.2l0.4,0.3c2.5,1.8,4.9,2.1,6.5,1.7c2-0.5,3-2.2,2.6-3.8l-0.1-0.5l0.9,0.5
                c1,0.6,2.1,1,3.1,1.2c-5.4,6.6-9.3,14.6-10.8,23.3c-0.2-1.5-0.6-2.8-1.2-3.9c1.7-3,2-5.8,2-8.5v-0.1c0-0.2-0.2-0.3-0.4-0.3
                c-0.2,0-0.4,0.1-0.4,0.3v0.1c0,2.8-0.6,5.5-1.7,7.7c0-0.1-0.1-0.1-0.1-0.2l-0.3-0.4c-2.3-3.4-5.5-5-5.5-7.8v-0.1
                c0-0.1-0.1-0.1-0.2-0.1c-0.1,0-0.2,0-0.2,0.1l0,0.1c-0.2,0.8-0.3,1.1-0.3,2.2c0,3.6,2.6,5.8,4.8,7.9l0.4,0.3
                c0.1,0.1,0.1,0.1,0.2,0.2c0,0.1-0.1,0.1-0.1,0.2c-1.7,2.1-4.2,3.4-6.5,3.4c-2.8,0-4.6-1.5-4.6-3.8c0-2,0.9-3.1,2.5-3.2
                c-0.1,0.2-0.2,0.5-0.2,0.7c0,0.5,0.3,1.2,1.2,1.3c1.3,0.2,2.1,0.5,2.1,1.1c0,0.3-0.1,0.6-0.3,0.6c-0.1,0-0.1,0.1-0.1,0.3l0,0.2
                c0.1,0.2,0.2,0.3,0.4,0.2c0.2-0.1,0.8-0.4,0.8-1.3c0-2.3-1.6-3.9-3.7-3.9c-2.3,0-3.6,1.5-3.6,4c0,2.7,2.2,4.6,5.4,4.6
                c2.5,0,5.4-1.5,7.1-3.7c0,0,0.1-0.1,0.1-0.1c1.2,1.2,2.1,2.5,2.1,4.1c-0.3,2-0.4,4-0.4,6.1c0,0.5,0,1.1,0,1.6
                c-2.2,3.6-6.9,5.4-10.7,3.3c-2.5-1.4-3.1-3.5-3.2-6.1l-0.5,0.5c-0.3,3,0.6,5.9,3.4,7.4c0.3,0.2,0.8,0.3,1.6,0.7l0,0.1
                c-1,0.2-1.9,0.7-2.5,1.7c-1,1.8-0.2,3.5,1.5,4.5c1.3,0.7,2.9,0.8,3.8-0.7c0.5-0.9,0.2-1.9-0.7-2.4c-0.8-0.4-1.7-0.2-2.1,0.6
                c-0.5,0.9-0.2,1.5,0.9,2.2c-0.4,0.3-1.1,0.1-1.5-0.1c-1.3-0.7-2-2.1-1.2-3.5c0.7-1.4,2.2-1.6,3.7-1.7c3.9-0.4,5.9-1.7,7.8-4.8
                c1.5,24.4,20.1,42.6,43.5,42.6c9.3,0,19-2.9,25.1-8.1c6.8-5.4,11.5-14.1,11.5-21.5c0-1.3-0.7-1.8-2-1.8c-1.6,0-2,0.7-2.5,3.1
                c-0.2,1-0.4,2-0.7,3c-2,2.7-4.3,3.9-6.2,3.3c-2.4-0.8-3.8-3.9-3-6.3c0.5-1.5,2.1-2.4,3.3-2c1.2,0.4,1.4,1.5,1,2.7
                c-0.3,0.7-0.6,1.2-1.3,2l1.6,1c0.6-0.6,0.9-1,1.1-1.7c0.7-2,0-3.1-1.3-4.3c-0.1-1.4,0-2.1,0.4-3.5c0.4,0.6,0.7,0.9,1.3,1.1
                c1.6,0.6,3.3-0.5,4.4-3.5c1-2.9,0.8-5.2,0-7.3c-1,2.9-5,5.4-6.3,9.2c-0.2,0.7-0.4,1.3-0.8,3.5c-1.8-0.3-3.4,0.4-4.1,2.4
                c-0.4,1.1-0.3,1.9,0,3.4c-0.9-0.5-1-0.6-1.1-1.6c-0.2-1.7-0.1-1.7-0.2-2c-0.5-1.9-1-2.8-2.2-3.2c-1.8-0.6-3.4,0.5-4,2.2
                c-0.3,0.9-0.3,1.7-0.2,2.9l2.3,0.6c0-1.6,0.1-2.7,0.4-3.5c0.3-0.9,1-1.3,1.6-1.1c0.9,0.3,1.6,2.6,1.8,4.9c-0.9,0.1-1.6,0.4-2,1.5
                c-0.1,0.2-0.1,0.4-0.2,0.9c0.8-0.8,1.4-1,2.2-0.8c0.9,0.3,2.7,2.1,4.8,2.8c1.3,0.4,2.9,0.4,4.5-0.1c0.2-0.1,0.6-0.2,0.9-0.4
                c-4.2,9-14.1,15.8-26.1,15.8c-0.2,0-0.4,0-0.6,0c0,0,0,0-0.1-0.1c-0.6-0.6-0.8-1.7-0.2-2.5c0.7-0.9,1.9-1,2.8-0.3
                c0.5,0.4,0.6,0.6,0.9,1.5c0.6,0,1.3-0.3,1.7-0.8c0.7-1,0.5-2.4-0.4-3.1c-1.6-1.2-4-0.6-5.1,0.9c-0.2,0.2-0.3,0.5-0.6,0.9
                c0.1-0.6,0.3-1,0.6-1.4c0.9-1.1,2.3-1.7,3.7-1.5c0.1,0,0.1,0,1,0.2c0.4,0.1,0.6,0.1,1,0.1c0.7-0.1,1.3-0.4,1.8-1
                c0.1-0.1,0.3-0.4,0.3-0.4c0.3-0.5,0.7-0.6,1.4-0.6c-0.3-0.4-0.5-0.6-0.9-0.9c-2.5-1.9-5.6-1.2-7.9,0.9c0.2-0.4,0.3-0.6,0.5-0.8
                c1.5-2,3.2-1.8,4.5-3.5c0.4-0.5,0.5-0.8,0.6-1.3c0.9,0,1.7,0.1,2.4,0.6c1,0.8,1.3,1.9,0.7,2.8c-0.1,0.1-0.2,0.2-0.4,0.3
                c0,0.2,0.1,0.3,0.4,0.5c0.6,0.4,1.4,0.3,1.8-0.2c0.8-1,0.1-3-1.2-4c-1-0.8-2.1-1-3.6-1.2c-0.3-0.9-0.5-1.4-1.2-2
                c-0.6-0.4-1.1-0.6-1.8-0.6c0.6,1,0.8,1.8,0.6,2.9c-2.4,0.9-3.9,1.8-5.3,3.6c-2.6,3.4-2.8,8.2,0.6,10.9c-2.8-0.2-5.4-0.8-7.8-1.6
                c0.2-1.4-0.1-2.9-0.9-4.5l-0.4-0.7l0.4,0.1c1.2,0.3,2.7-0.3,3.1-1.9c0.3-1.2,0.2-3.1-1.2-5.2l-0.2-0.3l-0.2,0.3
                c-0.4,0.9-1.1,1.2-2.1,0.9c-1.6-0.4-4.6-3-3.2-7.7c0.8-2.9,3.4-5.5,7.2-4.5c3.3,0.9,3.9,3.6,3.3,5.7c-0.6,2.2-2.3,2.9-3.7,2.5
                c-1.5-0.4-1.8-1.5-1.6-2.1c0.2-0.6,0.6-0.9,1-0.8c1,0.3,0.1,0.6,1,0.8c0.5,0.1,1.1-0.1,1.4-1c0.2-0.8-0.4-1.7-1.9-2.1
                c-1.3-0.4-2.7,0.8-3,2c-0.6,2.2,0.9,4.1,3,4.6c1.7,0.5,4.7-0.1,5.6-3.5c1.1-3.8-1.3-6.9-4.5-7.8c-3.7-1-8.5,0.9-10,6.2
                c-2.1,7.5,5.3,13.7,5.6,18.4c-6.3-2.7-10.4-7.5-8.6-12.8c1.4-4.1-5.9-4.2,0.9-8.1c-7.6-0.2-5.9-3.5-5.6-4.5
                c0.6-2.5,0.9-3.5-0.7-4.5c-1.7-1.1-3.6-1.6-5.1-2.8c-2.4-2,1.7-5,3-7c0.4-0.6,0.8-1.1,1.1-1.5c0.2-0.3,0.4-0.5,0.5-0.5
                c0.3-0.2,0.5,0,0.7,0.2l0.2,1c0,0.2,0.2,0.4,0.3,0.5c0.6,0.8,1.6,1,2.4,0.4c1-0.7,1-1.8,0.4-2.5c-0.3-0.4-0.6-0.7-1.2-0.7l-0.6,0
                c-0.3,0-0.5-0.1-0.6-0.3c-0.1-0.2,0-0.4,0.4-0.7l0.8-0.6c1.4-1,2.9-1.7,4.1-1.9c1.7-0.4,3.3-0.2,3.7,0.2c0.1,0.1,0.1,0.3-0.1,0.4
                l-1.2,0.2c-0.3,0.1-0.6,0.2-0.9,0.4c-1.4,1-1.8,2.8-1,4c1,1.5,2.7,1.7,3.8,0.9c0.6-0.4,0.8-0.8,1-1.5c-0.4,0.4-0.6,0.5-0.8,0.6
                c-0.9,0.6-2.3,0.5-2.8-0.3c-0.2-0.3-0.3-0.7,0-0.9c0.1-0.1,0.2,0,0.3,0l0.7,0.2c0.7,0.2,1.2,0.1,1.6-0.2c0.4-0.3,0.7-0.8,0.6-1.4
                L69,86.9c0-0.3,0.1-0.4,0.2-0.5c0.4-0.3,1.6,0.6,2.6,2c1.8,2.5,1.2,6.4-1.9,8.6c-1.3,0.9-2.9,0.9-3.7-0.3c-0.4-0.5-0.2-1.2,0.3-1.5
                c0.5-0.3,0.8-0.3,1.5,0c-0.1-0.2-0.2-0.4-0.3-0.5c-0.6-0.8-1.7-1-2.5-0.4c-1.2,0.8-1.3,2.4-0.5,3.5c0.4,0.6,1.1,1,1.8,0.9l1.5-0.1
                c0.4,0,0.7,0.1,0.8,0.3c0.2,0.2,0.1,0.5-0.1,0.6c-0.1,0-0.2,0.1-0.3,0.1l-1.1,0.3c-0.1,0-0.2,0.1-0.3,0.1c-0.2,0.2-0.3,0.4-0.2,0.5
                c0.2,0.3,1.7,0.6,2.5,0.6c0.8,0,1.6-0.2,2.2-0.6c0.2-0.2,0.4-0.4,0.5-0.6l0.2-0.7c0-0.1,0.1-0.2,0.1-0.2c0.2-0.1,0.5-0.1,0.6,0.1
                l0.3,0.6c0.1,0.2,0.3,0.3,0.4,0.2c1-0.7,1.8-2.9,1.4-3.4c-0.2-0.3-0.4-0.3-1-0.3l-0.4,0c-0.1,0-0.2,0-0.3-0.1
                c-0.1-0.1-0.1-0.3,0-0.4l0.3-0.7c0.9-2.3,0.6-4.5-0.9-6.6c-0.6-0.9-1.3-1.6-2.1-2.2L70,85.3c-0.2-0.3-0.2-0.3,0.1-0.5l0.6,0
                c0.3,0,0.6-0.1,0.9-0.4c0.9-0.6,1.1-1.7,0.4-2.6c-0.5-0.7-0.9-0.6-1.5-0.3L70,82.1c-0.1,0.1-0.3,0-0.4-0.1c-0.4-0.5,0-1.3,0.6-1.6
                c1.3-0.9,2.9-0.4,3.7,0.8c0.1,0.1,0.2,0.3,0.3,0.5c0.1-0.4,0-1-0.5-1.6c-0.9-1.2-2.7-1.7-4.2-0.7c-1.2,0.9-1.7,2.6-1.2,3.8l0.4,0.9
                c0.1,0.1,0,0.3-0.1,0.4c-0.1,0-0.1,0-0.1,0l-1-0.2c-1.9-0.4-4.2-0.2-7.1,1.2c0.3-0.5,0.5-1.1,0.8-1.8c1.7-4.1-0.1-9,1.2-16
                c1.8-9.9,12.4-18.6,20.4-18.6l0,0c0.5,0,0.9,0,1.4,0c0.1,0,0.2,0,0.3,0c4.8,0,13.1,2.3,13.1,7c0,2.9-5.4,2.5-5.4,11.2
                c0,4.3,3.8,8.9,10.4,8.9c5.4,0,10.4-4.2,10.4-10.5c0-5.4-2.4-10-6.4-13.5c-0.2-3.8,2.1-7.5,5.7-8.9c4.2-1.6,8.1,0.4,9.6,4.2
                c1.1,2.9,0.2,6.7-3.1,8c-2.5,0.9-5.3-0.3-6.1-2.5c-0.7-1.9,0.2-3.5,1.7-4.1c1.6-0.6,2.7,0.1,2.9,0.8c0.3,0.9-0.3,1.7-0.9,2
                c-0.5,0.2-0.7,0.6-0.6,1.1c0.2,0.4,0.8,0.5,1.1,0.4c1.2-0.5,2.2-2.2,1.5-3.9c-0.6-1.6-2.4-2.7-4.7-1.8c-2.4,0.9-3.3,3.6-2.3,6.1
                c1.2,3.2,4.8,4.3,7.9,3.1c3.8-1.4,5.6-5.7,4-9.9C122.6,44.9,120.8,43.1,120.2,41.6 M109.7,92.2c0.6,0.6,0.8,1.4,0.5,2.5
                c-0.9,2.8-7.3,4.5-8.7,8.5c-0.5,1.5,0.2,2.8,1.3,3.2c1,0.3,1.6-0.1,1.8-0.6c0.1-0.2,0.1-0.4,0.2-0.8c1.1-3.2,5-5.9,6.1-9.2
                c0.6-1.8-0.1-3.9-1.8-4.5c-1.3-0.4-2.8,0.2-3.2,1.4c-0.2,0.5,0,1.1,0.6,1.3C107.7,94.3,108.7,93.4,109.7,92.2"></path>
              <path style="clip-path:url(#SVGID_00000011022606182506913870000009524957571696747445_);fill:#FFFFFF;" d="M120,230.4
                c0.3-1.5,0.9-2.7,2.6-2.7c1.4,0,2.2,0.9,2.2,2.3c0,0.6-0.7,0.4-1.1,0.4H120z M126.1,234.9c-0.7,0.9-1.7,1.7-2.8,1.7
                c-2.4,0-3.5-2.4-3.5-4.5l0.1-1.1h6.4c0.2,0,0.6,0.1,0.6-0.2c0-2.4-2.1-3.6-4.3-3.6c-2.9,0-5,2.5-5,5.3c0,2.9,2.3,4.8,5.1,4.8
                c1.7,0,2.9-0.6,4-1.9L126.1,234.9z M114.3,230.2c0-2.1-1.2-3.1-3.3-3.1c-1.6,0-2.8,0.6-3.6,2h0l-0.3-2c-1.1,0.2-1.9,0.6-3.1,0.7
                v0.4c0.7,0,1.3-0.1,1.5,0.7c0.1,0.5,0.1,2.1,0.1,2.7v2.7c0,1.5,0.1,2-1.6,2.1v0.4c0.9,0,1.7-0.1,2.6-0.1c0.8,0,1.6,0.1,2.4,0.1
                v-0.4c-1.8-0.1-1.6-0.8-1.6-2.3v-3.5c0-1.6,1.1-3,2.9-3c2.1,0,2.1,2.2,2.1,3.7v2.9c0,1.5,0.1,2-1.6,2.1v0.4c0.9,0,1.7-0.1,2.6-0.1
                c0.8,0,1.6,0.1,2.4,0.1v-0.4c-1.7-0.1-1.6-0.8-1.6-2.3V230.2z M95.3,230.4c0.3-1.5,0.9-2.7,2.6-2.7c1.4,0,2.2,0.9,2.2,2.3
                c0,0.6-0.7,0.4-1.1,0.4H95.3z M101.5,234.9c-0.7,0.9-1.7,1.7-2.8,1.7c-2.4,0-3.5-2.4-3.5-4.5l0.1-1.1h6.4c0.2,0,0.6,0.1,0.6-0.2
                c0-2.4-2.1-3.6-4.3-3.6c-2.9,0-5,2.5-5,5.3c0,2.9,2.3,4.8,5.1,4.8c1.7,0,2.9-0.6,4-1.9L101.5,234.9z M100.3,225.1l-3.5-2.8
                c-0.3-0.2-0.6-0.5-1-0.5c-0.4,0-0.8,0.4-0.8,0.8c0,0.7,0.9,1,1.4,1.2l3,1.3H100.3z M90.9,235.1c-0.7,0.8-1.7,1.4-2.8,1.4
                c-2.5,0-3.2-2.2-3.2-4.4c0-2,0.7-4.4,3.2-4.4c0.8,0,1,0.2,1.3,0.8c0.2,0.4,0.4,0.9,1,0.9c0.4,0,0.7-0.4,0.7-0.8
                c0-1.2-2-1.5-2.9-1.5c-3.1,0-5.5,2.3-5.5,5.4c0,2.8,2,4.7,4.8,4.7c1.5,0,3-0.6,3.9-1.7L90.9,235.1z M75.2,236.5
                c0.7,0.5,1.6,0.8,2.5,0.8c1.7,0,3.3-1.1,3.3-3c0-2-1.4-2.6-3-3.4c-0.8-0.5-2.1-0.9-2.1-2c0-0.8,0.7-1.2,1.4-1.2
                c1.4,0,1.9,1.2,2.3,2.3h0.4l0-2.8h-0.3l-0.4,0.5c-0.6-0.4-1.5-0.6-2.2-0.6c-1.5,0-2.8,1.1-2.8,2.7c0,1.7,1.4,2.4,2.7,3.1
                c1,0.5,2.3,1,2.3,2.3c0,1.1-0.9,1.6-1.9,1.6c-1.7,0-2.4-1.4-2.8-2.8h-0.4l0.1,3.2h0.2L75.2,236.5z M62.2,232
                c-1.4,0.6-3.6,1.5-3.6,3.3c0,1.3,1.1,2,2.3,2c1.4,0,2.7-0.7,3.7-1.6c0.2,0.9,1,1.6,1.9,1.6c0.8,0,1.7-0.8,2-1.5l-0.4-0.2
                c-0.2,0.3-0.5,0.7-0.9,0.7c-0.9,0-0.8-1.7-0.8-2.2v-3.7c0-2.6-1.1-3.2-3.6-3.2c-1.1,0-4.1,0.3-4.1,2c0,0.5,0.4,0.8,0.8,0.8
                c0.6,0,0.9-0.5,0.9-1c0.1-1.2,1-1.3,2.1-1.3c1.8,0,2,1.1,2,2.6c0,0.2,0,0.5-0.2,0.6L62.2,232z M64.6,235.1
                c-0.6,0.6-1.6,1.3-2.5,1.3c-0.9,0-1.4-0.8-1.4-1.6c0-1.8,2.5-2.7,3.9-3.3V235.1z M55.7,221.7l-3.6,0.7v0.4c0.5,0.1,1.2,0,1.5,0.6
                c0.2,0.5,0.2,1.8,0.2,2.4v8.6c0,1.5,0.1,2-1.6,2.1v0.4c0.8,0,1.6-0.1,2.5-0.1c0.9,0,1.7,0.1,2.6,0.1v-0.4c-1.8-0.1-1.5-0.8-1.6-2.3
                V221.7z M39,230.4c0.3-1.5,0.9-2.7,2.6-2.7c1.4,0,2.2,0.9,2.2,2.3c0,0.6-0.7,0.4-1.1,0.4H39z M45.1,234.9c-0.7,0.9-1.7,1.7-2.8,1.7
                c-2.4,0-3.5-2.4-3.5-4.5l0.1-1.1h6.4c0.2,0,0.6,0.1,0.6-0.2c0-2.4-2.1-3.6-4.3-3.6c-2.9,0-5,2.5-5,5.3c0,2.9,2.3,4.8,5.1,4.8
                c1.7,0,2.9-0.6,4-1.9L45.1,234.9z M35.6,236.5v-0.4c-0.7,0-1.3,0-1.6-0.7c-0.2-0.6-0.2-1.7-0.2-2.3v-11.3l-3.6,0.7v0.4
                c1.6,0,1.7,0.8,1.7,2.1v3.5c-0.8-0.9-2-1.4-3.2-1.4c-2.8,0-4.8,2.5-4.8,5.2c0,2.8,1.9,4.9,4.8,4.9c1.5,0,2.5-0.5,3.5-1.7
                c0.1,0.6,0.2,1.2,0.4,1.7L35.6,236.5z M31.8,233.3c0,1.8-0.6,3.4-2.7,3.4c-2.4,0-3.1-2.3-3.1-4.3c0-1.9,0.6-4.5,3.1-4.5
                c1.3,0,2.7,0.9,2.7,2.3V233.3z"></path>
              <path style="clip-path:url(#SVGID_00000011022606182506913870000009524957571696747445_);fill:#FFFFFF;" d="M121.6,208.3v6.8
                c0,1.7,1.1,2.3,2.7,2.3c1.1,0,2.2-0.4,2.6-1.4l-0.4-0.3c-0.4,0.6-0.8,1-1.6,1c-1.2,0-1.4-1-1.4-2.1v-6.4h2.5v-0.6h-2.5v-2.6h-0.3
                c-0.5,1.3-1.6,2.2-2.7,2.8v0.4H121.6z M112,210.6c0.3-1.5,0.9-2.7,2.6-2.7c1.4,0,2.2,0.9,2.2,2.3c0,0.6-0.7,0.4-1.1,0.4H112z
                M118.1,215.1c-0.7,0.9-1.7,1.7-2.8,1.7c-2.4,0-3.5-2.4-3.5-4.5l0.1-1.1h6.4c0.2,0,0.6,0.1,0.6-0.2c0-2.4-2.1-3.6-4.3-3.6
                c-2.9,0-5,2.5-5,5.3c0,2.9,2.3,4.8,5.1,4.8c1.7,0,2.9-0.6,4-1.9L118.1,215.1z M96.6,210.6c0.3-1.5,0.9-2.7,2.6-2.7
                c1.4,0,2.2,0.9,2.2,2.3c0,0.6-0.7,0.4-1.1,0.4H96.6z M102.8,215.1c-0.7,0.9-1.7,1.7-2.8,1.7c-2.4,0-3.5-2.4-3.5-4.5l0.1-1.1h6.4
                c0.2,0,0.6,0.1,0.6-0.2c0-2.4-2.1-3.6-4.3-3.6c-2.9,0-5,2.5-5,5.3c0,2.9,2.3,4.8,5.1,4.8c1.7,0,2.9-0.6,4-1.9L102.8,215.1z
                M78.7,211.9c0-0.8,0-1.7,0.3-2.3c0.4-0.8,1.3-1.5,2.2-1.5c2.3,0,2.1,2.2,2.1,3.8v2.8c0,1.5,0.1,2-1.5,2.1v0.4
                c0.9,0,1.7-0.1,2.5-0.1c0.8,0,1.6,0.1,2.4,0.1v-0.4c-1.8-0.1-1.5-0.8-1.5-2.3v-2.7c0-0.8,0-1.7,0.3-2.3c0.4-0.8,1.3-1.5,2.2-1.5
                c2.3,0,2.1,2.2,2.1,3.8v2.8c0,1.5,0.1,2-1.5,2.1v0.4c0.8,0,1.7-0.1,2.5-0.1c0.8,0,1.7,0.1,2.5,0.1v-0.4c-1.7-0.1-1.5-0.8-1.5-2.3
                v-3.2c0-0.9,0-2.2-0.6-3c-0.6-0.8-1.6-1.1-2.6-1.1c-1.4,0-2.6,0.6-3.4,1.8c-0.4-1.3-1.7-1.8-3.1-1.8c-1.5,0-2.5,0.7-3.4,1.8
                l-0.2-1.8c-1.1,0.2-1.9,0.6-3.1,0.7v0.4c0.7,0,1.3-0.1,1.5,0.7c0.1,0.5,0.1,2.1,0.1,2.7v2.8c0,1.5,0.1,2-1.6,2.1v0.4
                c0.8,0,1.7-0.1,2.5-0.1c0.8,0,1.6,0.1,2.4,0.1v-0.4c-1.7-0.1-1.5-0.8-1.5-2.3V211.9z M65.7,207.6c-0.6,0-1.2,0.1-1.7,0.1
                c-0.6,0-1.2-0.1-1.9-0.1v0.4c1.8,0.3,1.7,0.8,1.7,2.5v3.8c0,2,0.8,3.2,3.1,3.2c1.5,0,2.9-0.9,3.7-2.1l0.5,2.1l3.1-0.8v-0.5
                c-0.3,0-0.6,0.1-0.8,0.1c-0.8,0-0.8-0.9-0.8-1.5v-7.2c-0.6,0-1.2,0.1-1.7,0.1c-0.6,0-1.2-0.1-1.9-0.1v0.4c1.8,0.3,1.7,0.8,1.7,2.5
                v3c0,1.7-1.3,3.3-3.1,3.3c-1.7,0-1.9-1.8-1.9-3.1V207.6z M56.7,208.3v6.8c0,1.7,1.1,2.3,2.7,2.3c1.1,0,2.2-0.4,2.6-1.4l-0.4-0.3
                c-0.4,0.6-0.8,1-1.6,1c-1.2,0-1.4-1-1.4-2.1v-6.4h2.5v-0.6h-2.5v-2.6h-0.3c-0.5,1.3-1.6,2.2-2.7,2.8v0.4H56.7z M48.2,216.7
                c0.7,0.5,1.6,0.8,2.5,0.8c1.7,0,3.3-1.1,3.3-3c0-2-1.4-2.6-3-3.4c-0.9-0.5-2.1-0.9-2.1-2c0-0.8,0.7-1.2,1.4-1.2
                c1.4,0,1.9,1.2,2.3,2.3h0.4l0-2.8h-0.3l-0.4,0.5c-0.6-0.4-1.5-0.6-2.2-0.6c-1.5,0-2.8,1.1-2.8,2.7c0,1.7,1.4,2.4,2.7,3.1
                c1,0.5,2.3,1,2.3,2.3c0,1.1-0.9,1.6-1.9,1.6c-1.7,0-2.4-1.4-2.8-2.8h-0.4l0.1,3.2h0.2L48.2,216.7z M40.5,207.9
                c2.6,0,3.2,2.5,3.2,4.6c0,2-0.6,4.4-3,4.4c-2.6,0-3.2-2.5-3.2-4.6C37.4,210.4,38,207.9,40.5,207.9 M40.6,207.4
                c-2.7,0-5.4,2.1-5.4,4.9c0,2.9,2.5,5.2,5.4,5.2c2.9,0,5.4-2.1,5.4-5.1C45.9,209.5,43.3,207.4,40.6,207.4 M33.4,215.4
                c-0.7,0.8-1.7,1.4-2.8,1.4c-2.5,0-3.2-2.2-3.2-4.4c0-2,0.7-4.4,3.2-4.4c0.8,0,1,0.2,1.3,0.8c0.2,0.4,0.4,0.9,1,0.9
                c0.4,0,0.7-0.4,0.7-0.8c0-1.2-2-1.5-2.9-1.5c-3.1,0-5.5,2.3-5.5,5.4c0,2.8,2,4.7,4.8,4.7c1.5,0,3-0.6,3.9-1.7L33.4,215.4z"></path>
              <path style="clip-path:url(#SVGID_00000011022606182506913870000009524957571696747445_);fill:#FFFFFF;" d="M121.9,188.4
                c-0.6,0-1.2,0.1-1.7,0.1c-0.6,0-1.2-0.1-1.9-0.1v0.4c1.8,0.3,1.7,0.8,1.7,2.5v3.8c0,2,0.8,3.2,3.1,3.2c1.5,0,2.9-0.9,3.7-2.1
                l0.5,2.1l3.1-0.8V197c-0.3,0-0.6,0.1-0.8,0.1c-0.8,0-0.8-0.9-0.8-1.5v-7.2c-0.6,0-1.2,0.1-1.7,0.1c-0.6,0-1.2-0.1-1.9-0.1v0.4
                c1.8,0.3,1.7,0.8,1.7,2.5v3c0,1.7-1.3,3.3-3.1,3.3c-1.7,0-1.9-1.8-1.9-3.1V188.4z M117.5,197.6v-0.4c-0.7,0-1.3,0-1.6-0.7
                c-0.2-0.6-0.2-1.7-0.2-2.3v-11.3l-3.6,0.7v0.4c1.6,0,1.7,0.8,1.7,2.1v3.5c-0.8-0.9-2-1.4-3.2-1.4c-2.8,0-4.8,2.5-4.8,5.2
                c0,2.8,1.9,4.9,4.8,4.9c1.5,0,2.5-0.5,3.5-1.7c0.1,0.6,0.2,1.2,0.4,1.7L117.5,197.6z M113.8,194.4c0,1.8-0.6,3.4-2.7,3.4
                c-2.4,0-3.1-2.3-3.1-4.3c0-1.9,0.6-4.5,3.1-4.5c1.3,0,2.7,0.9,2.7,2.3V194.4z M98.4,182.8l-3.6,0.7v0.4c0.5,0.1,1.2,0,1.5,0.6
                c0.2,0.5,0.2,1.8,0.2,2.4v8.6c0,1.5,0.1,2-1.6,2.1v0.4c0.8,0,1.6-0.1,2.5-0.1c0.8,0,1.7,0.1,2.6,0.1v-0.4c-1.8-0.1-1.5-0.8-1.6-2.3
                V182.8z M87.4,193.1c-1.4,0.6-3.6,1.5-3.6,3.3c0,1.3,1.1,2,2.3,2c1.4,0,2.7-0.7,3.7-1.6c0.2,0.9,1,1.6,1.9,1.6c0.8,0,1.7-0.8,2-1.5
                l-0.4-0.2c-0.2,0.3-0.5,0.7-0.9,0.7c-0.9,0-0.8-1.7-0.8-2.2v-3.7c0-2.6-1.1-3.2-3.6-3.2c-1.1,0-4.1,0.3-4.1,2
                c0,0.5,0.4,0.8,0.9,0.8c0.6,0,0.8-0.5,0.9-1c0.1-1.2,1-1.3,2.1-1.3c1.8,0,2,1.1,2,2.6c0,0.2,0,0.5-0.2,0.7L87.4,193.1z M89.8,196.2
                c-0.6,0.6-1.6,1.3-2.5,1.3c-0.9,0-1.4-0.8-1.4-1.6c0-1.8,2.5-2.7,3.9-3.3V196.2z M81,191.3c0-2.1-1.2-3.1-3.3-3.1
                c-1.6,0-2.8,0.6-3.6,2h0l-0.3-2c-1.1,0.2-1.9,0.6-3.1,0.7v0.4c0.7,0,1.3-0.1,1.5,0.7c0.1,0.5,0.1,2.1,0.1,2.7v2.8
                c0,1.5,0.1,2-1.6,2.1v0.4c0.9,0,1.7-0.1,2.6-0.1c0.8,0,1.6,0.1,2.4,0.1v-0.4c-1.8-0.1-1.6-0.8-1.6-2.3v-3.5c0-1.6,1.1-3,2.9-3
                c2.1,0,2.1,2.2,2.1,3.7v2.9c0,1.5,0.1,2-1.6,2.1v0.4c0.9,0,1.7-0.1,2.6-0.1c0.8,0,1.6,0.1,2.4,0.1v-0.4c-1.7-0.1-1.6-0.8-1.6-2.3
                V191.3z M63.6,188.8c2.6,0,3.2,2.5,3.2,4.7c0,2-0.6,4.4-3,4.4c-2.6,0-3.2-2.5-3.2-4.6C60.6,191.3,61.2,188.8,63.6,188.8
                M63.7,188.2c-2.7,0-5.4,2.1-5.4,4.9c0,3,2.5,5.2,5.4,5.2c2.9,0,5.4-2.1,5.4-5.1C69.1,190.4,66.5,188.2,63.7,188.2 M54.6,185.4
                c0.6,0,1.1-0.5,1.1-1.2c0-0.7-0.5-1.2-1.2-1.2c-0.7,0-1.2,0.5-1.2,1.2C53.4,184.9,54,185.4,54.6,185.4 M52.3,188.9v0.4
                c0.4,0,1.4-0.1,1.5,0.5c0.1,0.3,0.1,2.1,0.1,2.5v3.2c0,1.5,0.1,2-1.5,2.1v0.4c0.9,0,1.7-0.1,2.6-0.1c0.8,0,1.6,0.1,2.4,0.1v-0.4
                c-1.8-0.1-1.5-0.8-1.6-2.3v-7.2L52.3,188.9z M46.2,189.2v6.8c0,1.7,1.1,2.3,2.7,2.3c1.1,0,2.2-0.4,2.6-1.4l-0.4-0.3
                c-0.4,0.6-0.8,1-1.6,1c-1.2,0-1.4-1.1-1.4-2.1v-6.4h2.5v-0.6h-2.5V186h-0.3c-0.5,1.3-1.6,2.2-2.7,2.8v0.4H46.2z M37.7,193.1
                c-1.4,0.6-3.6,1.5-3.6,3.3c0,1.3,1.1,2,2.3,2c1.4,0,2.7-0.7,3.7-1.6c0.2,0.9,1,1.6,1.9,1.6c0.8,0,1.7-0.8,2-1.5l-0.4-0.2
                c-0.2,0.3-0.5,0.7-0.9,0.7c-0.9,0-0.8-1.7-0.8-2.2v-3.7c0-2.6-1.1-3.2-3.6-3.2c-1.1,0-4.1,0.3-4.1,2c0,0.5,0.4,0.8,0.9,0.8
                c0.6,0,0.8-0.5,0.9-1c0.1-1.2,1-1.3,2.1-1.3c1.8,0,2,1.1,2,2.6c0,0.2,0,0.5-0.2,0.7L37.7,193.1z M40.1,196.2
                c-0.6,0.6-1.6,1.3-2.5,1.3c-0.9,0-1.4-0.8-1.4-1.6c0-1.8,2.5-2.7,3.9-3.3V196.2z M31,191.3c0-2.1-1.2-3.1-3.3-3.1
                c-1.6,0-2.8,0.6-3.6,2h0l-0.3-2c-1.1,0.2-1.9,0.6-3.1,0.7v0.4c0.7,0,1.3-0.1,1.5,0.7c0.1,0.5,0.1,2.1,0.1,2.7v2.8
                c0,1.5,0.1,2-1.6,2.1v0.4c0.9,0,1.7-0.1,2.6-0.1c0.8,0,1.6,0.1,2.4,0.1v-0.4c-1.8-0.1-1.6-0.8-1.6-2.3v-3.5c0-1.6,1.1-3,2.9-3
                c2.1,0,2.1,2.2,2.1,3.7v2.9c0,1.5,0.1,2-1.6,2.1v0.4c0.9,0,1.7-0.1,2.6-0.1c0.8,0,1.6,0.1,2.4,0.1v-0.4c-1.7-0.1-1.6-0.8-1.6-2.3
                V191.3z"></path>
              <path style="clip-path:url(#SVGID_00000011022606182506913870000009524957571696747445_);fill:#FFFFFF;" d="M98.3,171.8
                c0.3-1.5,0.9-2.7,2.6-2.7c1.4,0,2.2,0.9,2.2,2.3c0,0.6-0.7,0.4-1.1,0.4H98.3z M104.4,176.3c-0.7,0.9-1.7,1.7-2.8,1.7
                c-2.4,0-3.5-2.4-3.5-4.5l0.1-1.1h6.4c0.2,0,0.6,0.1,0.6-0.2c0-2.4-2.1-3.6-4.3-3.6c-2.9,0-5,2.5-5,5.3c0,2.9,2.3,4.8,5.1,4.8
                c1.7,0,2.9-0.6,4-1.9L104.4,176.3z M88.6,175.9c0,1.5,0.1,2-1.6,2.1v0.4c0.9,0,1.7-0.1,2.6-0.1c0.8,0,1.7,0.1,2.6,0.1V178
                c-1.9-0.1-1.7-0.6-1.7-2.3v-2.2c0-1,0-2.1,0.5-3c0.3-0.6,1.1-1.1,1.7-1.1c0.9,0,0.7,1.2,1.6,1.2c0.4,0,0.8-0.4,0.8-0.8
                c0-0.8-0.9-1.2-1.6-1.2c-1.5,0-2.7,0.9-3.2,2.3h0c0-0.8-0.1-1.6-0.3-2.3c-1,0.2-2,0.6-3,0.7v0.4c0.7,0,1.3-0.1,1.5,0.7
                c0.2,0.5,0.1,2.1,0.1,2.7V175.9z M80.7,169.5v6.8c0,1.7,1.1,2.3,2.7,2.3c1.1,0,2.2-0.4,2.6-1.4l-0.4-0.3c-0.4,0.6-0.8,1-1.6,1
                c-1.2,0-1.4-1.1-1.4-2.1v-6.4h2.5v-0.6h-2.5v-2.6h-0.3c-0.5,1.3-1.6,2.2-2.7,2.8v0.4H80.7z M76.9,171.6c0-2.1-1.2-3.1-3.3-3.1
                c-1.6,0-2.8,0.6-3.6,2h0l-0.3-2c-1.1,0.2-1.9,0.6-3.1,0.7v0.4c0.7,0,1.3-0.1,1.5,0.7c0.1,0.5,0.1,2.1,0.1,2.7v2.7
                c0,1.5,0.1,2-1.6,2.1v0.4c0.9,0,1.7-0.1,2.6-0.1c0.8,0,1.6,0.1,2.4,0.1V178c-1.8-0.1-1.6-0.8-1.6-2.3v-3.5c0-1.6,1.1-3,2.9-3
                c2.1,0,2.1,2.2,2.1,3.7v2.9c0,1.5,0.1,2-1.6,2.1v0.4c0.9,0,1.7-0.1,2.6-0.1c0.8,0,1.6,0.1,2.4,0.1V178c-1.7-0.1-1.6-0.8-1.6-2.3
                V171.6z M58.1,171.8c0.3-1.5,0.9-2.7,2.6-2.7c1.4,0,2.2,0.9,2.2,2.3c0,0.6-0.7,0.4-1.1,0.4H58.1z M64.2,176.3
                c-0.7,0.9-1.7,1.7-2.8,1.7c-2.4,0-3.5-2.4-3.5-4.5l0.1-1.1h6.4c0.2,0,0.6,0.1,0.6-0.2c0-2.4-2.1-3.6-4.3-3.6c-2.9,0-5,2.5-5,5.3
                c0,2.9,2.3,4.8,5.1,4.8c1.7,0,2.9-0.6,4-1.9L64.2,176.3z M53.9,176.6c-0.7,0.8-1.7,1.4-2.8,1.4c-2.5,0-3.2-2.2-3.2-4.4
                c0-2,0.7-4.4,3.2-4.4c0.8,0,1,0.2,1.3,0.8c0.2,0.4,0.4,0.9,1,0.9c0.4,0,0.7-0.4,0.7-0.8c0-1.2-2-1.5-2.9-1.5
                c-3.1,0-5.5,2.3-5.5,5.4c0,2.8,2,4.7,4.8,4.7c1.5,0,3-0.6,3.9-1.7L53.9,176.6z"></path>
            </g>
            <rect x="21.7" y="153.6" style="fill:#FFFFFF;" width="106.9" height="1.7"></rect>
          </svg>