<?xml version="1.0" encoding="UTF-8"?>
<svg xmlns="http://www.w3.org/2000/svg" xmlns:xlink="http://www.w3.org/1999/xlink" width="291px" height="150px" viewBox="0 0 33 17" version="1.1">
<g id="surface1">
<path style=" stroke:none;fill-rule:nonzero;fill:rgb(13.72549%,30.196078%,57.647059%);fill-opacity:1;" d="M 2.613281 15.425781 L 2.164062 14.324219 L 1.6875 15.425781 Z M 1.835938 12.875 L 2.488281 12.875 L 4.289062 16.925781 L 3.136719 16.925781 L 2.863281 16.25 L 1.414062 16.25 L 1.136719 16.925781 L 0.0117188 16.925781 L 1.835938 12.875 "/>
<path style=" stroke:none;fill-rule:nonzero;fill:rgb(13.72549%,30.196078%,57.647059%);fill-opacity:1;" d="M 4.664062 12.875 L 7.585938 12.875 L 7.585938 13.824219 L 5.761719 13.824219 L 5.761719 14.398438 L 7.363281 14.398438 L 7.363281 15.324219 L 5.761719 15.324219 L 5.761719 15.949219 L 7.613281 15.949219 L 7.613281 16.898438 L 4.664062 16.898438 L 4.664062 12.875 "/>
<path style=" stroke:none;fill-rule:nonzero;fill:rgb(13.72549%,30.196078%,57.647059%);fill-opacity:1;" d="M 9.914062 14.976562 C 10.238281 15 10.511719 14.773438 10.5625 14.449219 C 10.5625 14.425781 10.5625 14.425781 10.5625 14.398438 C 10.5625 14.074219 10.3125 13.800781 9.988281 13.800781 C 9.960938 13.800781 9.9375 13.800781 9.914062 13.800781 L 9.386719 13.800781 L 9.386719 14.976562 Z M 9.613281 15.898438 L 9.386719 15.898438 L 9.386719 16.925781 L 8.3125 16.925781 L 8.3125 12.875 L 10.011719 12.875 C 11.0625 12.875 11.664062 13.523438 11.664062 14.398438 C 11.664062 14.925781 11.363281 15.425781 10.886719 15.648438 L 10.789062 15.699219 C 10.988281 15.851562 11.210938 15.898438 11.460938 15.898438 L 11.460938 17 C 10.6875 17.023438 9.960938 16.601562 9.613281 15.898438 "/>
<path style=" stroke:none;fill-rule:nonzero;fill:rgb(13.72549%,30.196078%,57.647059%);fill-opacity:1;" d="M 15.335938 14.898438 C 15.386719 14.324219 14.9375 13.851562 14.386719 13.800781 C 14.363281 13.800781 14.335938 13.800781 14.3125 13.800781 C 13.738281 13.800781 13.261719 14.25 13.261719 14.824219 C 13.261719 14.851562 13.261719 14.875 13.261719 14.898438 C 13.238281 15.476562 13.6875 15.976562 14.261719 16 C 14.289062 16 14.289062 16 14.3125 16 C 14.886719 16 15.363281 15.523438 15.363281 14.949219 C 15.335938 14.925781 15.335938 14.925781 15.335938 14.898438 Z M 12.113281 14.898438 C 12.113281 13.75 13.039062 12.800781 14.1875 12.800781 C 14.210938 12.800781 14.261719 12.800781 14.289062 12.800781 C 15.4375 12.75 16.386719 13.625 16.4375 14.773438 C 16.4375 14.824219 16.4375 14.875 16.4375 14.898438 C 16.460938 16.050781 15.539062 17 14.386719 17 C 14.335938 17 14.3125 17 14.261719 17 C 13.113281 17.050781 12.136719 16.148438 12.085938 14.976562 C 12.113281 14.949219 12.113281 14.925781 12.113281 14.898438 "/>
<path style=" stroke:none;fill-rule:nonzero;fill:rgb(13.72549%,30.196078%,57.647059%);fill-opacity:1;" d="M 18.585938 14.949219 C 19.085938 14.949219 19.261719 14.675781 19.261719 14.398438 C 19.261719 14.101562 19.0625 13.824219 18.585938 13.824219 L 18.164062 13.824219 L 18.164062 14.949219 Z M 17.085938 12.875 L 18.664062 12.875 C 19.710938 12.875 20.363281 13.523438 20.363281 14.425781 C 20.363281 15.273438 19.710938 15.875 18.613281 15.875 L 18.164062 15.875 L 18.164062 16.925781 L 17.085938 16.925781 L 17.085938 12.875 "/>
<path style=" stroke:none;fill-rule:nonzero;fill:rgb(13.72549%,30.196078%,57.647059%);fill-opacity:1;" d="M 23.914062 14.898438 C 23.960938 14.324219 23.511719 13.851562 22.960938 13.800781 C 22.9375 13.800781 22.914062 13.800781 22.886719 13.800781 C 22.3125 13.800781 21.835938 14.25 21.835938 14.824219 C 21.835938 14.851562 21.835938 14.875 21.835938 14.898438 C 21.8125 15.476562 22.261719 15.976562 22.835938 16 C 22.863281 16 22.863281 16 22.886719 16 C 23.460938 16 23.9375 15.523438 23.9375 14.949219 C 23.914062 14.925781 23.914062 14.925781 23.914062 14.898438 Z M 20.710938 14.898438 C 20.710938 13.75 21.636719 12.800781 22.789062 12.800781 C 22.8125 12.800781 22.863281 12.800781 22.886719 12.800781 C 24.039062 12.75 24.988281 13.625 25.039062 14.773438 C 25.039062 14.824219 25.039062 14.875 25.039062 14.898438 C 25.0625 16.050781 24.136719 17 22.988281 17 C 22.9375 17 22.914062 17 22.863281 17 C 21.710938 17.050781 20.738281 16.148438 20.6875 14.976562 C 20.710938 14.949219 20.710938 14.925781 20.710938 14.898438 "/>
<path style=" stroke:none;fill-rule:nonzero;fill:rgb(13.72549%,30.196078%,57.647059%);fill-opacity:1;" d="M 27.289062 14.976562 C 27.613281 15 27.886719 14.773438 27.9375 14.449219 C 27.9375 14.425781 27.9375 14.425781 27.9375 14.398438 C 27.9375 14.074219 27.6875 13.800781 27.363281 13.800781 C 27.335938 13.800781 27.3125 13.800781 27.289062 13.800781 L 26.761719 13.800781 L 26.761719 14.976562 Z M 26.988281 15.898438 L 26.761719 15.898438 L 26.761719 16.925781 L 25.6875 16.925781 L 25.6875 12.875 L 27.386719 12.875 C 28.4375 12.875 29.039062 13.523438 29.039062 14.398438 C 29.039062 14.925781 28.738281 15.425781 28.261719 15.648438 L 28.164062 15.699219 C 28.363281 15.851562 28.585938 15.898438 28.835938 15.898438 L 28.835938 17 C 28.0625 17.023438 27.335938 16.601562 26.988281 15.898438 "/>
<path style=" stroke:none;fill-rule:nonzero;fill:rgb(13.72549%,30.196078%,57.647059%);fill-opacity:1;" d="M 30.585938 13.851562 L 29.289062 13.851562 L 29.289062 12.875 L 32.988281 12.875 L 32.988281 13.851562 L 31.664062 13.851562 L 31.664062 16.925781 L 30.5625 16.925781 L 30.585938 13.851562 "/>
<path style=" stroke:none;fill-rule:nonzero;fill:rgb(13.72549%,30.196078%,57.647059%);fill-opacity:1;" d="M 0.136719 7.601562 L 1.261719 7.601562 L 1.261719 10.675781 L 3.0625 10.675781 L 3.0625 11.625 L 0.136719 11.625 L 0.136719 7.601562 "/>
<path style=" stroke:none;fill-rule:nonzero;fill:rgb(13.72549%,30.196078%,57.647059%);fill-opacity:1;" d="M 4.011719 10.074219 L 2.5625 7.601562 L 3.886719 7.601562 L 4.613281 9 L 5.335938 7.601562 L 6.585938 7.601562 L 5.113281 10.074219 L 5.113281 11.648438 L 4.011719 11.648438 L 4.011719 10.074219 "/>
<path style=" stroke:none;fill-rule:nonzero;fill:rgb(13.72549%,30.196078%,57.647059%);fill-opacity:1;" d="M 9.761719 9.625 C 9.8125 9.050781 9.363281 8.574219 8.8125 8.523438 C 8.789062 8.523438 8.761719 8.523438 8.738281 8.523438 C 8.164062 8.523438 7.6875 8.976562 7.6875 9.550781 C 7.6875 9.574219 7.6875 9.601562 7.6875 9.625 C 7.664062 10.199219 8.113281 10.699219 8.6875 10.726562 C 8.710938 10.726562 8.710938 10.726562 8.738281 10.726562 C 9.3125 10.726562 9.789062 10.25 9.789062 9.675781 C 9.761719 9.648438 9.761719 9.648438 9.761719 9.625 Z M 6.539062 9.625 C 6.539062 8.476562 7.460938 7.523438 8.613281 7.523438 C 8.636719 7.523438 8.6875 7.523438 8.710938 7.523438 C 9.863281 7.476562 10.8125 8.351562 10.863281 9.5 C 10.863281 9.550781 10.863281 9.601562 10.863281 9.625 C 10.886719 10.773438 9.960938 11.726562 8.8125 11.726562 C 8.761719 11.726562 8.738281 11.726562 8.6875 11.726562 C 7.539062 11.773438 6.5625 10.875 6.511719 9.699219 C 6.539062 9.675781 6.539062 9.648438 6.539062 9.625 "/>
<path style=" stroke:none;fill-rule:nonzero;fill:rgb(13.72549%,30.196078%,57.647059%);fill-opacity:1;" d="M 12.585938 9.449219 L 12.585938 11.648438 L 11.511719 11.648438 L 11.511719 7.574219 L 12.113281 7.574219 L 14.164062 9.773438 L 14.164062 7.625 L 15.261719 7.625 L 15.261719 11.699219 L 14.664062 11.699219 L 12.585938 9.449219 "/>
<path style=" stroke:none;fill-rule:nonzero;fill:rgb(89.803922%,12.156863%,20.784314%);fill-opacity:1;" d="M 6.761719 11.925781 L 6.761719 12.726562 L 5.414062 12.726562 L 6.761719 11.925781 "/>
<path style=" stroke:none;fill-rule:nonzero;fill:rgb(89.803922%,12.156863%,20.784314%);fill-opacity:1;" d="M 3.960938 2.648438 C 3.960938 2.601562 3.988281 2.574219 3.988281 2.523438 C 4.039062 2.375 4.085938 2.226562 4.136719 2.050781 C 4.4375 1.300781 4.863281 0.601562 5.414062 0 C 5.4375 -0.0234375 4.886719 0.199219 4.113281 1.023438 C 2.6875 2.5 2.835938 3.101562 2.460938 4.300781 C 2.289062 4.925781 2.011719 5.5 1.636719 6.050781 C 2.613281 5.324219 3.335938 4.324219 3.761719 3.199219 C 3.863281 3.023438 3.914062 2.851562 3.960938 2.648438 "/>
<path style=" stroke:none;fill-rule:nonzero;fill:rgb(89.803922%,12.156863%,20.784314%);fill-opacity:1;" d="M 0.0859375 2.398438 C 0.8125 2.949219 1.664062 3.351562 2.5625 3.601562 C 2.613281 3.273438 2.710938 2.976562 2.863281 2.675781 C 2.585938 2.675781 2.3125 2.699219 1.960938 2.699219 C 1.3125 2.726562 0.6875 2.601562 0.0859375 2.398438 "/>
<path style=" stroke:none;fill-rule:nonzero;fill:rgb(89.803922%,12.156863%,20.784314%);fill-opacity:1;" d="M 5.460938 3.398438 C 5.011719 3.175781 4.511719 2.976562 4.011719 2.824219 C 3.914062 3.125 3.8125 3.449219 3.6875 3.726562 C 3.761719 3.726562 3.863281 3.726562 3.9375 3.726562 C 3.988281 3.726562 4.011719 3.726562 4.0625 3.726562 C 4.210938 3.726562 4.386719 3.726562 4.539062 3.726562 C 5.335938 3.800781 6.113281 4.023438 6.835938 4.398438 C 6.414062 4.050781 5.960938 3.699219 5.460938 3.398438 "/>
</g>
</svg>
