<?xml version="1.0" encoding="utf-8"?>
<!-- Generator: Adobe Illustrator 22.0.0, SVG Export Plug-In . SVG Version: 6.00 Build 0)  -->
<svg version="1.1" xmlns="http://www.w3.org/2000/svg" xmlns:xlink="http://www.w3.org/1999/xlink" x="0px" y="0px"
	 viewBox="0 0 32 32" style="enable-background:new 0 0 32 32;" xml:space="preserve">
<g id="Send">
	<path d="M30.057,1.943c-0.755-0.755-1.856-1.036-2.879-0.728L3.163,8.377c-1.143,0.34-1.93,1.289-2.055,2.476
		c-0.125,1.186,0.448,2.278,1.495,2.849l9.872,5.385c0.186,0.102,0.337,0.253,0.438,0.438l5.385,9.871
		c0.52,0.953,1.469,1.513,2.529,1.513c0.105,0,0.213-0.005,0.32-0.017c1.186-0.125,2.135-0.912,2.475-2.056l7.162-24.014
		C31.09,3.801,30.811,2.697,30.057,1.943z M29.06,4.308l-7.162,24.015c-0.194,0.651-0.768,0.762-0.939,0.779
		c-0.172,0.018-0.755,0.029-1.081-0.567l-5.343-9.794l8.113-8.114c0.352-0.351,0.352-0.921,0-1.272
		c-0.352-0.352-0.921-0.352-1.272,0l-8.113,8.112l-9.798-5.345c-0.598-0.326-0.585-0.91-0.567-1.081
		c0.018-0.171,0.127-0.745,0.78-0.939L27.692,2.94c0.107-0.032,0.215-0.047,0.321-0.047c0.285,0,0.559,0.112,0.771,0.324
		C29.074,3.506,29.177,3.915,29.06,4.308z" fill="#FFF"/>
</g>
</svg>
